<svg width="26" height="26" viewBox="0 0 26 26" fill="none" xmlns="http://www.w3.org/2000/svg">
<path d="M25.9997 22.5903C25.9726 23.0499 25.9882 23.5048 25.8435 23.9501C25.5379 24.889 24.924 25.5367 23.9963 25.846C22.6272 26.3029 21.208 25.7154 20.5319 24.449C20.3189 24.0496 20.229 23.6219 20.2033 23.169C20.1533 22.2803 20.1154 21.3875 19.9998 20.5063C19.8368 19.2642 19.5015 18.0594 19.0471 16.8905C18.0113 14.227 16.4224 11.9487 14.2751 10.0657C12.6551 8.64493 10.8316 7.56466 8.80663 6.82417C7.57 6.37203 6.29957 6.06 4.99466 5.9077C4.30232 5.82648 3.60186 5.77977 2.90478 5.77842C1.62826 5.77504 0.551879 4.954 0.164463 3.84259C-0.340599 2.39275 0.369327 0.796714 1.81825 0.207843C2.1766 0.0623179 2.55049 -0.00198402 2.93926 4.65674e-05C4.06162 0.00546147 5.17654 0.0948073 6.28808 0.257254C7.85735 0.486034 9.38471 0.87523 10.8695 1.42958C13.5577 2.43337 15.9843 3.8805 18.1364 5.78384C20.3852 7.77246 22.1843 10.109 23.5318 12.7934C24.1667 14.0578 24.6846 15.3696 25.0734 16.7294C25.3973 17.8618 25.6508 19.0111 25.7752 20.1841C25.8597 20.9848 25.9253 21.7882 25.9997 22.5903Z" fill="#2480F6"/>
<path d="M15.8565 22.5626C15.9207 23.318 15.8294 24.0145 15.4278 24.6487C14.7922 25.6525 13.6246 26.1642 12.4589 25.9422C11.3014 25.7215 10.3873 24.8409 10.1642 23.6977C10.102 23.3796 10.1047 23.0472 10.0871 22.7217C10.0013 21.1209 9.43804 19.7076 8.41778 18.4777C7.55573 17.4394 6.47732 16.7071 5.20418 16.2671C4.45369 16.0079 3.6775 15.905 2.88306 15.8853C1.72284 15.8569 0.854026 15.3188 0.310426 14.288C-0.481311 12.7867 0.309073 10.8278 1.91418 10.2809C2.27658 10.1577 2.64507 10.0995 3.02505 10.107C4.05816 10.1273 5.08045 10.2471 6.08111 10.5063C7.99926 11.0031 9.72269 11.8831 11.2386 13.1637C12.9316 14.5939 14.1851 16.3429 14.9924 18.4067C15.517 19.7502 15.8078 21.1452 15.8565 22.5626Z" fill="#2480F6"/>
<path d="M2.88512 20.2274C4.49496 20.2261 5.75592 21.4965 5.76945 23.1075C5.78297 24.6751 4.4909 25.9936 2.9027 25.9956C1.30367 25.9977 0.00958026 24.7082 0.0041713 23.1169C-0.00191378 21.5141 1.32125 20.203 2.88512 20.2274Z" fill="#2480F6"/>
</svg>
