<svg width="27" height="27" viewBox="0 0 27 27" fill="none" xmlns="http://www.w3.org/2000/svg">
<path fill-rule="evenodd" clip-rule="evenodd" d="M0 9.6C0 6.23969 0 4.55953 0.653961 3.27606C1.2292 2.14708 2.14708 1.2292 3.27606 0.653961C4.55953 0 6.23969 0 9.6 0H17.4C20.7603 0 22.4405 0 23.7239 0.653961C24.8529 1.2292 25.7708 2.14708 26.346 3.27606C27 4.55953 27 6.23969 27 9.6V14.8803C27 15.6008 27 15.9611 26.8496 16.1612C26.7185 16.3357 26.5179 16.4444 26.3002 16.459C26.0503 16.4757 25.7485 16.279 25.1448 15.8856L20.8771 13.1045L20.7333 13.0105C20.1398 12.6218 19.5443 12.2319 18.8699 12.0823C18.2825 11.952 17.6724 11.965 17.091 12.1201C16.4236 12.2982 15.8452 12.7131 15.2688 13.1266L15.1291 13.2267L11.3707 15.9102C10.6519 16.4234 10.5628 16.4645 10.5018 16.4832C10.3989 16.5149 10.2903 16.524 10.1835 16.5099C10.1202 16.5016 10.0255 16.4759 9.23144 16.0894L8.4389 15.7037L8.31417 15.6428C7.79122 15.3871 7.26526 15.1299 6.69324 15.0429C6.19392 14.967 5.68441 14.9927 5.19527 15.1185C4.63492 15.2627 4.13753 15.5715 3.64299 15.8786L3.52503 15.9518L0.622214 17.7467C0.350485 17.9147 0 17.7195 0 17.4V17.4V9.6ZM0.742837 21.1993C0.510566 21.3429 0.394431 21.4147 0.311175 21.5225C0.242574 21.6113 0.186602 21.7372 0.16665 21.8476C0.142435 21.9816 0.164042 22.1 0.207258 22.3369C0.303989 22.867 0.445867 23.3155 0.653961 23.7239C1.2292 24.8529 2.14708 25.7708 3.27606 26.346C4.55953 27 6.23969 27 9.6 27H17.4C20.7603 27 22.4405 27 23.7239 26.346C24.8529 25.7708 25.7708 24.8529 26.346 23.7239C26.6737 23.0808 26.8372 22.338 26.9188 21.3342C26.9379 21.0993 26.9474 20.9819 26.9183 20.8636C26.8934 20.7624 26.8422 20.658 26.7774 20.5764C26.7016 20.4809 26.5966 20.4125 26.3866 20.2756L19.2392 15.6179C18.3952 15.0679 18.2892 15.0264 18.2203 15.0111C18.1028 14.985 17.9808 14.9876 17.8645 15.0187C17.7963 15.0369 17.6922 15.0829 16.8724 15.6682L13.1139 18.3518L12.9921 18.439C12.484 18.8033 11.9733 19.1695 11.3831 19.3509C10.8683 19.5091 10.3255 19.5545 9.79155 19.4842C9.17942 19.4035 8.61494 19.1274 8.0533 18.8527L7.91867 18.7869L7.12613 18.4012C6.38872 18.0424 6.30169 18.0179 6.24224 18.0088C6.14238 17.9937 6.04048 17.9988 5.94265 18.024C5.88442 18.0389 5.80029 18.0721 5.10277 18.5034L0.742837 21.1993ZM12 9C12 10.6569 10.6569 12 9 12C7.34315 12 6 10.6569 6 9C6 7.34315 7.34315 6 9 6C10.6569 6 12 7.34315 12 9Z" fill="#F04C24"/>
</svg>
