<svg width="38" height="38" viewBox="0 0 38 38" fill="none" xmlns="http://www.w3.org/2000/svg">
<g clip-path="url(#clip0)">
<path d="M25.8544 31.6667H12.1457C8.35234 31.6667 5.27783 28.5922 5.27783 24.7988V11.0901C5.27783 7.29674 8.35234 4.22223 12.1457 4.22223H25.8544C29.6478 4.22223 32.7223 7.29674 32.7223 11.0901V24.7988C32.7223 28.5922 29.6478 31.6667 25.8544 31.6667Z" fill="#F04C24"/>
<path d="M12.8375 16.1001C13.5179 16.1001 14.0694 15.1701 14.0694 14.0229C14.0694 12.8756 13.5179 11.9456 12.8375 11.9456C12.1572 11.9456 11.6057 12.8756 11.6057 14.0229C11.6057 15.1701 12.1572 16.1001 12.8375 16.1001Z" fill="white"/>
<path d="M25.1626 16.1001C25.8429 16.1001 26.3944 15.1701 26.3944 14.0229C26.3944 12.8756 25.8429 11.9456 25.1626 11.9456C24.4823 11.9456 23.9308 12.8756 23.9308 14.0229C23.9308 15.1701 24.4823 16.1001 25.1626 16.1001Z" fill="white"/>
<path d="M23.2304 18.7342C24.3458 18.7342 25.0697 19.9086 24.5736 20.9076C23.6371 22.7908 21.5194 24.1053 19.0574 24.1053C16.5954 24.1053 14.4777 22.7908 13.5412 20.9076C13.0451 19.9086 13.769 18.7342 14.8844 18.7342H23.2304Z" fill="white"/>
</g>
<defs>
<clipPath id="clip0">
<rect width="27.4444" height="27.4444" fill="white" transform="translate(5.27783 4.22223)"/>
</clipPath>
</defs>
</svg>
