<svg width="28" height="28" viewBox="0 0 28 28" fill="none" xmlns="http://www.w3.org/2000/svg">
<path d="M28 24.936C28 26.6281 26.6281 28 24.936 28H3.06404C1.37193 28 0 26.6287 0 24.936V3.06404C0 1.37193 1.37193 0 3.06404 0H24.936C26.6281 0 28 1.37193 28 3.06404V24.936Z" fill="url(#paint0_radial)"/>
<path d="M19.6288 4.46414H8.37053C6.21622 4.46414 4.4635 6.21686 4.4635 8.37118V19.6288C4.4635 21.7832 6.21622 23.5359 8.37053 23.5359H19.6288C21.7831 23.5359 23.5358 21.7832 23.5358 19.6288V8.37118C23.5358 6.21686 21.7831 4.46414 19.6288 4.46414ZM21.8499 19.6288C21.8499 20.8538 20.8538 21.8499 19.6288 21.8499H8.37053C7.14614 21.8499 6.14949 20.8532 6.14949 19.6288V8.37118C6.14949 7.14617 7.14553 6.15013 8.37053 6.15013H19.6288C20.8532 6.15013 21.8499 7.14678 21.8499 8.37118V19.6288V19.6288Z" fill="#F1F2F2"/>
<path d="M13.9997 8.86888C11.1701 8.86888 8.86829 11.1707 8.86829 14.0003C8.86829 16.8299 11.1701 19.1317 13.9997 19.1317C16.8293 19.1317 19.1311 16.8299 19.1311 14.0003C19.1317 11.1707 16.8293 8.86888 13.9997 8.86888ZM13.9997 17.4457C12.1001 17.4457 10.5543 15.9 10.5543 14.0003C10.5543 12.1007 12.1001 10.5549 13.9997 10.5549C15.9 10.5549 17.4458 12.1007 17.4458 14.0003C17.4458 15.9 15.9 17.4457 13.9997 17.4457Z" fill="#F1F2F2"/>
<path d="M19.5651 8.06017C19.1941 8.06017 18.8923 8.36198 18.8923 8.73297C18.8923 9.10396 19.1941 9.40577 19.5651 9.40577C19.9361 9.40577 20.2379 9.10396 20.2379 8.73297C20.2379 8.36198 19.9361 8.06017 19.5651 8.06017Z" fill="#F1F2F2"/>
<defs>
<radialGradient id="paint0_radial" cx="0" cy="0" r="1" gradientUnits="userSpaceOnUse" gradientTransform="translate(1.94578 26.4793) scale(35.6035)">
<stop stop-color="#FEC053"/>
<stop offset="0.3273" stop-color="#F2203E"/>
<stop offset="0.6485" stop-color="#B729A8"/>
<stop offset="1" stop-color="#5342D6"/>
</radialGradient>
</defs>
</svg>
