<svg width="28" height="28" viewBox="0 0 28 28" fill="none" xmlns="http://www.w3.org/2000/svg">
<path d="M14 28C21.732 28 28 21.732 28 14C28 6.26801 21.732 0 14 0C6.26801 0 0 6.26801 0 14C0 21.732 6.26801 28 14 28Z" fill="url(#paint0_linear)"/>
<path d="M8.37321 21.5443H7.42703C6.49761 21.5443 5.74402 20.7907 5.74402 19.8612V13.1711C5.74402 12.2416 6.49761 11.488 7.42703 11.488H8.37321C9.30263 11.488 10.0562 12.2416 10.0562 13.1711V19.8612C10.0562 20.7907 9.30263 21.5443 8.37321 21.5443Z" fill="white"/>
<path d="M16.512 10.7679H21.5359C21.5359 10.7679 22.256 10.7679 22.256 12.2081C22.256 13.6483 21.5359 13.6483 21.5359 13.6483C21.5359 13.6483 22.256 13.6483 22.256 15.0885C22.256 16.5287 21.5359 16.5287 21.5359 16.5287C21.5359 16.5287 22.256 17.9689 20.8158 18.6806C20.8158 18.6806 21.5359 20.8325 19.3756 20.8325H14.4354C13.4641 20.8325 12.5263 20.4474 11.8314 19.7524C11.1448 19.0658 10.7512 18.128 10.7512 17.1483V14.2345C10.7512 13.4306 11.0694 12.6687 11.622 12.0909C12.7524 10.9019 14.4103 8.69139 12.9031 7.18421C12.9031 7.18421 13.1041 3.9689 15.7751 5.74402C17.9522 7.18421 16.512 10.7679 16.512 10.7679Z" fill="white"/>
<defs>
<linearGradient id="paint0_linear" x1="14.0013" y1="-0.119653" x2="14.0013" y2="27.8832" gradientUnits="userSpaceOnUse">
<stop stop-color="#32A4FC"/>
<stop offset="0.5" stop-color="#237DF5"/>
<stop offset="1" stop-color="#1558ED"/>
</linearGradient>
</defs>
</svg>
