<svg width="31" height="32" viewBox="0 0 31 32" fill="none" xmlns="http://www.w3.org/2000/svg">
<path d="M15.5 32C24.0604 32 31 24.8366 31 16C31 7.16344 24.0604 0 15.5 0C6.93959 0 0 7.16344 0 16C0 24.8366 6.93959 32 15.5 32Z" fill="url(#paint0_radial)"/>
<path d="M12.0132 14.0059C11.3626 15.6436 11.1656 22.1072 12.9196 23.5881C14.0249 24.521 20.8246 25.1214 21.9644 24.5464C23.1042 23.971 23.2258 22.7237 22.6851 22.3368C22.6851 22.3368 23.4653 22.5653 24.0348 21.03C24.652 19.3661 23.7483 19.0962 23.7483 19.0962C23.7483 19.0962 24.7468 19.0497 24.9438 17.6259C25.1272 16.3019 24.4224 15.745 24.4224 15.745C24.4224 15.745 25.4053 15.0679 25.1416 13.5143C24.8779 11.9607 22.8094 12.2615 22.8094 12.2615C22.8094 12.2615 18.0395 12.7648 17.6705 12.4277C17.3014 12.0905 19.2616 8.22253 18.6068 6.43737C17.952 4.6522 15.6728 4.2196 14.7342 4.8067C13.7957 5.3938 15.2068 7.71327 14.7528 9.41629C14.2992 11.1193 12.5225 12.7246 12.0132 14.0059Z" fill="white"/>
<path d="M8.27444 11.9212C6.85691 11.9212 5.81299 11.9251 5.81299 13.5949C5.81299 14.5606 5.81299 16.6024 5.81299 17.9107C5.81299 19.2191 5.81299 21.2609 5.81299 22.2266C5.81299 23.8964 6.85728 23.9003 8.27444 23.9003C9.69197 23.9003 10.7359 23.8964 10.7359 22.2266C10.7359 21.2609 10.7359 19.2191 10.7359 17.9107C10.7359 16.6024 10.7359 14.5606 10.7359 13.5949C10.7359 11.9251 9.69197 11.9212 8.27444 11.9212Z" fill="white"/>
<defs>
<radialGradient id="paint0_radial" cx="0" cy="0" r="1" gradientUnits="userSpaceOnUse" gradientTransform="translate(28.0625 6.66756) scale(31.0558 32.0576)">
<stop stop-color="#33A4FE"/>
<stop offset="1" stop-color="#1A60F4"/>
</radialGradient>
</defs>
</svg>
