<svg width="28" height="28" viewBox="0 0 28 28" fill="none" xmlns="http://www.w3.org/2000/svg">
<g clip-path="url(#clip0)">
<path d="M14.0009 28.0018C21.7334 28.0018 28.0018 21.7334 28.0018 14.0009C28.0018 6.26841 21.7334 0 14.0009 0C6.26841 0 0 6.26841 0 14.0009C0 21.7334 6.26841 28.0018 14.0009 28.0018Z" fill="#FE2842"/>
<path d="M15.5528 17.4088C15.2347 17.27 15.2347 17.1452 15.2347 17.1452C15.2347 17.1452 15.2347 17.1452 15.2347 16.98C15.2347 16.8148 15.1661 16.7866 15.1661 16.7866H15.0132V16.0397C15.203 15.8323 15.3014 15.5001 15.3594 15.1697C15.4192 15.1785 15.4491 15.0712 15.4491 15.0712C15.4491 15.0712 15.5387 14.6424 15.5387 14.486C15.5387 14.4034 15.4878 14.3858 15.4403 14.3875C15.4596 13.8743 15.428 13.0641 15.428 13.0641C15.2751 12.2345 14.4613 12.0957 14.0377 12.0939C13.5984 12.0921 12.7248 12.2328 12.5719 13.0641C12.5719 13.0641 12.5403 13.8743 12.5596 14.3875C12.5122 14.3858 12.4612 14.4016 12.4612 14.486C12.4612 14.6424 12.5508 15.0712 12.5508 15.0712C12.5508 15.0712 12.5807 15.1767 12.6405 15.1697C12.6985 15.5001 12.7951 15.8323 12.9867 16.0397V16.7866H12.8338C12.8338 16.7866 12.7653 16.8148 12.7653 16.98C12.7653 17.1452 12.7653 17.1452 12.7653 17.1452C12.7653 17.1452 12.7653 17.27 12.4471 17.4088C12.129 17.5477 10.3855 18.321 10.3855 18.9994V20.0786H13.3787H13.8866H14.1081H14.7056H17.6109V18.9994C17.6127 18.3228 15.8709 17.5477 15.5528 17.4088Z" fill="white"/>
<path d="M18.6022 18.2437C18.4932 18.2437 18.3825 18.205 18.2946 18.1259C18.1083 17.9572 18.0943 17.6672 18.263 17.4809C19.2279 16.4193 19.7587 15.0449 19.7587 13.6107C19.7587 10.4347 17.175 7.85111 13.9991 7.85111C10.8231 7.85111 8.2395 10.4347 8.2395 13.6107C8.2395 15.0449 8.77029 16.4211 9.7352 17.4809C9.90393 17.6672 9.89163 17.9554 9.70357 18.1259C9.51726 18.2946 9.22902 18.2823 9.05854 18.0943C7.94071 16.864 7.32556 15.2716 7.32556 13.6089C7.32556 9.93032 10.3187 6.93717 13.9973 6.93717C17.6759 6.93717 20.6691 9.93032 20.6691 13.6089C20.6691 15.2716 20.054 16.864 18.9361 18.0943C18.85 18.1927 18.727 18.2437 18.6022 18.2437Z" fill="white"/>
<path d="M17.2032 16.9852C17.0942 16.9852 16.9853 16.9466 16.8974 16.8675C16.7093 16.6988 16.6953 16.4105 16.864 16.2225C17.5002 15.5142 17.8517 14.6002 17.8517 13.6476C17.8517 11.5244 16.124 9.79674 14.0009 9.79674C11.8777 9.79674 10.15 11.5244 10.15 13.6476C10.15 14.6002 10.5015 15.5142 11.1378 16.2225C11.3065 16.4105 11.2907 16.6988 11.1044 16.8675C10.9163 17.0362 10.6281 17.0204 10.4594 16.8341C9.67021 15.9588 9.23608 14.8269 9.23608 13.6476C9.23608 11.02 11.3733 8.8828 14.0009 8.8828C16.6285 8.8828 18.7657 11.02 18.7657 13.6476C18.7657 14.8269 18.3316 15.9571 17.5424 16.8341C17.4528 16.9343 17.328 16.9852 17.2032 16.9852Z" fill="white"/>
</g>
<defs>
<clipPath id="clip0">
<rect width="28" height="28" fill="white"/>
</clipPath>
</defs>
</svg>
