<svg width="79" height="60" viewBox="0 0 79 60" fill="none" xmlns="http://www.w3.org/2000/svg">
<g clip-path="url(#clip0)">
<path d="M49.499 32.9582C49.0062 32.9582 48.5915 32.6856 48.4768 32.6021C48.3501 32.5103 48.1106 32.2933 47.9583 32.1514H46.2066C45.9644 32.1514 45.7671 31.953 45.7671 31.7082V22.0701C45.7671 21.8253 45.9635 21.6259 46.2066 21.6259H48.7823C48.8429 21.5925 49.0319 21.4701 49.3678 21.0844C49.9587 20.4037 50.4826 19.5561 50.9892 18.7363C51.3984 18.0732 51.7847 17.4473 52.1921 16.9307C52.75 16.2231 53.0996 15.9635 53.4382 15.7122C53.7851 15.4544 54.1448 15.1873 54.8302 14.3165C55.9286 12.9218 56.0782 12.0343 56.2232 11.1755C56.2489 11.0235 56.2755 10.8667 56.3067 10.71C56.4305 10.0896 56.9783 9.44788 57.6803 9.44788C57.9336 9.44788 58.1804 9.53041 58.4144 9.69363C59.3118 10.3196 59.7835 12.1428 59.6054 13.353C59.4228 14.5966 58.4979 16.3335 57.9657 16.9372C57.5032 17.4612 57.2857 17.7486 57.3812 18.548C57.4261 18.9292 57.9996 18.944 58.0244 18.944L61.581 18.9579C62.6188 18.9672 64.577 19.5236 64.577 21.5675C64.577 22.4995 64.2063 23.0791 63.7741 23.4167C64.1852 23.7895 64.5054 24.3959 64.3907 25.315C64.2797 26.2071 63.8475 26.7384 63.3428 27.012C63.6218 27.3913 63.809 27.9403 63.6869 28.684C63.5686 29.4 63.14 29.8321 62.6996 30.0741C62.9079 30.3978 63.0373 30.8503 62.9272 31.442C62.6702 32.8312 61.492 32.9119 60.9892 32.9462C60.947 32.949 60.9075 32.9517 60.8726 32.9545C60.8598 32.9554 60.846 32.9564 60.8332 32.9564H49.499V32.9582Z" fill="white"/>
<path d="M56.1709 0.664908C56.0268 0.631523 55.8763 0.612976 55.7222 0.612976H34.8137C33.6979 0.612976 32.7931 1.52735 32.7931 2.65502V2.85069C32.7931 3.97835 33.6979 4.89273 34.8137 4.89273H37.1554C38.2877 5.51499 39.0558 6.72704 39.0558 8.12086C39.0558 8.57805 38.9713 9.01576 38.8199 9.41916C38.686 9.59999 38.5557 9.78454 38.4281 9.97001H27.1361C26.0203 9.97001 25.1156 10.8844 25.1156 12.012V12.2077C25.1156 13.3354 26.0203 14.2498 27.1361 14.2498H31.4791C33.0345 14.2498 34.509 15.5805 34.509 17.1524C34.509 17.9694 33.9034 19.9586 31.681 19.9586H19.4585C18.3427 19.9586 17.438 20.8729 17.438 22.0006V22.1963C17.438 23.324 18.3427 24.2383 19.4585 24.2383H26.4654C28.14 24.2383 29.5595 25.5839 29.5595 27.2763C29.5595 28.7907 27.9546 30.0417 26.5626 30.0417H23.4987C22.3829 30.0417 21.4782 30.9561 21.4782 32.0838V32.2794C21.4782 33.4071 22.3829 34.3215 23.4987 34.3215H35.1541C36.5489 34.3215 37.8152 35.2461 38.1528 36.6139C38.6126 38.4751 37.1683 39.8263 35.3165 39.8263H30.4679C29.3521 39.8263 28.4474 40.7406 28.4474 41.8683V42.064C28.4474 43.1916 29.3521 44.106 30.4679 44.106H54.6119C55.0954 44.1385 55.5827 44.157 56.0745 44.157C67.9575 44.157 77.5895 34.4226 77.5895 22.4133C77.5914 10.4309 68.0107 0.71684 56.1709 0.664908ZM56.3939 39.3236C51.181 39.421 46.4994 37.11 43.3657 33.4182H45.156C45.9938 33.4182 46.7067 33.0742 46.9738 32.5947H47.7886C47.94 32.732 48.1107 32.8822 48.2217 32.9629C48.363 33.0658 48.8759 33.4025 49.499 33.4025H60.8314C60.858 33.4025 60.8846 33.4015 60.9103 33.3988C60.9424 33.396 60.9782 33.3941 61.0167 33.3913C61.2975 33.3719 61.7682 33.3394 62.2243 33.1113C62.6464 32.8998 63.1859 32.4529 63.3575 31.5264C63.453 31.0117 63.3988 30.5805 63.2658 30.2291C63.6649 29.9138 64.0072 29.4427 64.1191 28.7601C64.2283 28.0989 64.1292 27.5638 63.931 27.1428C64.3825 26.7635 64.7257 26.1811 64.8266 25.3734C64.9193 24.6287 64.7633 23.962 64.3843 23.4454C64.7257 23.0522 65.0166 22.4578 65.0166 21.5703C65.0166 20.3267 64.3715 19.3669 63.2006 18.8661C62.4234 18.5342 61.6701 18.5184 61.5875 18.5175C61.5856 18.5175 61.5847 18.5175 61.5838 18.5175L58.0327 18.5035C57.962 18.5008 57.8666 18.4785 57.8125 18.4544C57.751 17.8804 57.8758 17.7097 58.2942 17.2359C58.8741 16.5784 59.8431 14.7644 60.0404 13.4216C60.1386 12.7521 60.0643 11.9369 59.8367 11.1848C59.689 10.6952 59.3394 9.80308 58.664 9.33199C58.3594 9.11962 58.0198 9.00741 57.6803 9.00741C56.7535 9.00741 56.0351 9.82998 55.8763 10.6257C55.8442 10.7889 55.8167 10.9493 55.791 11.1042C55.6488 11.9444 55.5148 12.7372 54.4871 14.043C53.8383 14.8674 53.5181 15.1057 53.1786 15.357C52.8345 15.613 52.4436 15.9023 51.849 16.6563C51.426 17.1932 51.0332 17.8294 50.6166 18.5035C50.1193 19.3076 49.6064 20.1403 49.0384 20.7932C48.8493 21.0102 48.7218 21.1261 48.6502 21.1836H46.9728C46.704 20.706 45.9928 20.3638 45.1569 20.3638H39.4586C40.4524 12.1215 47.3848 5.64945 55.7598 5.49273C65.2579 5.31468 72.9914 13.1314 72.8162 22.7304C72.6492 31.775 65.3451 39.1567 56.3939 39.3236ZM48.842 22.0702C48.842 22.0702 48.842 22.0702 48.8429 22.0702C48.8613 22.0702 49.1072 22.0563 49.6972 21.3774C50.7928 20.1172 51.6416 18.3403 52.5344 17.208C53.6383 15.8086 53.8044 16.3335 55.1734 14.5938C56.5425 12.855 56.5315 11.8219 56.7361 10.7991C56.815 10.404 57.1903 9.89211 57.6794 9.89211C57.8317 9.89211 57.9951 9.94219 58.1639 10.06C58.876 10.557 59.3338 12.1716 59.1696 13.289C59.0053 14.4065 58.129 16.0841 57.6363 16.6423C57.1435 17.2015 56.826 17.6179 56.9435 18.6009C57.0371 19.3827 58.018 19.3882 58.018 19.3882L61.5783 19.4022C61.5783 19.4022 64.1366 19.4235 64.1366 21.5675C64.1366 23.2451 62.7657 23.3759 62.7657 23.3759C62.7657 23.3759 64.154 23.6485 63.9531 25.2593C63.7705 26.7311 62.6308 26.8015 62.4142 26.8015C62.3913 26.8015 62.3784 26.8006 62.3784 26.8006C62.3784 26.8006 63.486 27.1882 63.2511 28.6108C63.0584 29.7867 61.8462 29.8915 61.8462 29.8915C61.8462 29.8915 62.7014 30.2374 62.4941 31.3623C62.2812 32.5131 61.2718 32.4742 60.8314 32.515C60.8314 32.515 49.7935 32.515 49.499 32.515C49.2035 32.515 48.9016 32.3648 48.7328 32.2414C48.5713 32.1246 48.1299 31.7073 48.1299 31.7073H47.0875V22.0702H48.842Z" fill="url(#paint0_linear)"/>
<path d="M12.8941 22.5607C12.8941 21.038 11.6728 19.8046 10.167 19.8046H4.71185C3.20607 19.8046 1.98474 21.0389 1.98474 22.5607C1.98474 24.0825 3.20607 25.3169 4.71185 25.3169H10.1661C11.6728 25.3169 12.8941 24.0825 12.8941 22.5607Z" fill="#F04C24"/>
<path d="M20.4698 38.9963H15.0156C13.5098 38.9963 12.2885 40.2306 12.2885 41.7524C12.2885 43.2742 13.5098 44.5085 15.0156 44.5085H20.4698C21.9756 44.5085 23.1969 43.2742 23.1969 41.7524C23.1969 40.2306 21.9765 38.9963 20.4698 38.9963Z" fill="#F04C24"/>
<path d="M11.4889 34.1058C12.5539 33.0295 12.5539 31.2845 11.4889 30.2081C10.4239 29.1318 8.69719 29.1318 7.6322 30.2081C6.5672 31.2845 6.5672 33.0295 7.6322 34.1058C8.69719 35.1821 10.4239 35.1821 11.4889 34.1058Z" fill="#F04C24"/>
<path d="M19.4803 15.2371C20.9461 14.8873 21.8537 13.4029 21.5076 11.9215C21.1615 10.4402 19.6927 9.52284 18.2269 9.87263C16.7611 10.2224 15.8535 11.7069 16.1996 13.1882C16.5457 14.6696 18.0145 15.5869 19.4803 15.2371Z" fill="#F04C24"/>
<path d="M25.2259 4.70537C26.2909 3.62906 26.2909 1.884 25.2259 0.807689C24.1609 -0.268627 22.4342 -0.268627 21.3693 0.807689C20.3043 1.884 20.3043 3.62906 21.3693 4.70537C22.4342 5.78169 24.1609 5.78169 25.2259 4.70537Z" fill="#F04C24"/>
<path d="M2.04252 58.1573H5.18163C5.43581 58.1573 5.62025 58.1861 5.73587 58.2445C5.85148 58.3029 5.92764 58.3938 5.9671 58.5181C6.00564 58.6424 6.02491 58.8074 6.02491 59.0142C6.02491 59.2201 6.00564 59.3852 5.9671 59.5094C5.92856 59.6337 5.86341 59.719 5.77073 59.7663C5.62484 59.8442 5.4248 59.8832 5.17062 59.8832H1.01572C0.47709 59.8832 0.161435 59.7357 0.0696746 59.4399C0.0237945 59.3156 0.000854492 59.1172 0.000854492 58.8454V52.3614C0.000854492 52.1824 0.0063601 52.0488 0.0182889 51.9589C0.0302177 51.8699 0.0660042 51.7669 0.127484 51.6501C0.234843 51.4405 0.534899 51.3348 1.02765 51.3348C1.56628 51.3348 1.88561 51.4785 1.98563 51.766C2.02417 51.8986 2.04344 52.1008 2.04344 52.3725V58.1573H2.04252Z" fill="#26499F"/>
<path d="M7.35083 52.3614C7.35083 52.1824 7.35634 52.0488 7.36826 51.9589C7.38019 51.8699 7.41598 51.7669 7.47746 51.6501C7.58482 51.4405 7.88487 51.3348 8.37763 51.3348C8.91626 51.3348 9.23558 51.4785 9.3356 51.766C9.37414 51.8986 9.39341 52.1008 9.39341 52.3725V58.8566C9.39341 59.043 9.38791 59.1793 9.37598 59.2646C9.36405 59.3499 9.32826 59.451 9.26678 59.5679C9.1585 59.7774 8.85937 59.8832 8.36661 59.8832C7.82798 59.8832 7.51233 59.7357 7.42057 59.4399C7.37469 59.3156 7.35175 59.1172 7.35175 58.8454V52.3614H7.35083Z" fill="#26499F"/>
<path d="M14.5165 55.5914C15.6938 56.7348 16.5279 57.5935 17.0206 58.1685C17.2748 58.456 17.4014 58.6989 17.4014 58.8974C17.4014 59.0958 17.2473 59.3286 16.9399 59.5975C16.6325 59.8655 16.3801 60 16.1838 60C15.9874 60 15.7507 59.8368 15.4745 59.5104L12.9355 56.5827V58.8566C12.9355 59.043 12.93 59.1793 12.918 59.2646C12.9061 59.3499 12.8703 59.451 12.8088 59.5679C12.7006 59.7774 12.4014 59.8832 11.9087 59.8832C11.37 59.8832 11.0544 59.7357 10.9626 59.4399C10.9167 59.3156 10.8938 59.1172 10.8938 58.8454V52.3614C10.8938 52.1824 10.8993 52.0488 10.9112 51.9589C10.9232 51.8699 10.9589 51.7669 11.0204 51.6501C11.1278 51.4405 11.4278 51.3348 11.9206 51.3348C12.4592 51.3348 12.7786 51.4785 12.8786 51.766C12.9171 51.8986 12.9364 52.1008 12.9364 52.3725V54.6C13.9824 53.4102 14.8285 52.4346 15.4754 51.6723C15.7442 51.3533 15.9791 51.1938 16.1792 51.1938C16.3792 51.1938 16.6334 51.3283 16.9408 51.5963C17.2482 51.8643 17.4023 52.098 17.4023 52.2964C17.4023 52.4949 17.2867 52.7295 17.0564 53.0022C16.6105 53.5233 15.9177 54.2383 14.979 55.1481L14.5165 55.5914Z" fill="#26499F"/>
<path d="M20.8864 57.8189H24.4403C24.6174 57.8189 24.7495 57.8244 24.8385 57.8365C24.9266 57.8485 25.0284 57.8847 25.1441 57.9468C25.3514 58.0563 25.456 58.3586 25.456 58.8566C25.456 59.4009 25.3138 59.7199 25.0294 59.8127C24.8981 59.8591 24.6981 59.8822 24.4293 59.8822H19.8596C19.321 59.8822 19.0053 59.7348 18.9135 59.439C18.8677 59.3147 18.8447 59.1162 18.8447 58.8445V52.3604C18.8447 51.9645 18.9181 51.6937 19.064 51.5499C19.2099 51.4062 19.487 51.3339 19.8945 51.3339H24.4412C24.6183 51.3339 24.7504 51.3394 24.8394 51.3515C24.9275 51.3635 25.0294 51.3997 25.145 51.4628C25.3524 51.5722 25.457 51.8745 25.457 52.3725C25.457 52.9169 25.3147 53.2359 25.0303 53.3286C24.8991 53.375 24.699 53.3991 24.4302 53.3991H20.8873V54.5768H23.1721C23.3492 54.5768 23.4814 54.5824 23.5704 54.5945C23.6585 54.6065 23.7612 54.6436 23.8759 54.7057C24.0833 54.8152 24.1879 55.1175 24.1879 55.6155C24.1879 56.1598 24.042 56.4788 23.7493 56.5716C23.6181 56.6179 23.4181 56.6421 23.1492 56.6421H20.8873V57.8189H20.8864Z" fill="#26499F"/>
<path d="M32.2472 51.6909C32.3206 51.5546 32.4298 51.4637 32.5757 51.4164C32.7216 51.37 32.9042 51.3468 33.1235 51.3468C33.3428 51.3468 33.5199 51.3663 33.6538 51.4053C33.7887 51.4442 33.8887 51.4906 33.9539 51.5453C34.019 51.6 34.0677 51.6816 34.098 51.7901C34.1438 51.9144 34.1668 52.1128 34.1668 52.3845V58.8575C34.1668 59.0439 34.1613 59.1802 34.1493 59.2655C34.1374 59.3509 34.1016 59.4519 34.0392 59.5688C33.931 59.7784 33.6318 59.8841 33.1391 59.8841C32.839 59.8841 32.6316 59.8609 32.516 59.8145C32.4004 59.7682 32.304 59.694 32.2279 59.5929C30.4973 57.2606 29.3585 55.7369 28.8126 55.021V58.8575C28.8126 59.0439 28.8071 59.1802 28.7951 59.2655C28.7832 59.3509 28.7474 59.4519 28.685 59.5688C28.5768 59.7784 28.2776 59.8841 27.7849 59.8841C27.3077 59.8841 27.0159 59.7793 26.9076 59.5688C26.8462 59.4519 26.8095 59.3471 26.7984 59.2535C26.7865 59.1598 26.781 59.0244 26.781 58.8454V52.3382C26.781 52.0424 26.8177 51.8272 26.8911 51.6909C26.9645 51.5546 27.0737 51.4637 27.2196 51.4164C27.3655 51.37 27.5545 51.3468 27.7849 51.3468C28.0152 51.3468 28.1987 51.3682 28.3327 51.4108C28.4676 51.4535 28.5612 51.5026 28.6153 51.5564C28.6456 51.5796 28.7346 51.6807 28.8805 51.8597C30.5037 54.0909 31.5883 55.5645 32.1343 56.2794V52.3372C32.137 52.0423 32.1737 51.8263 32.2472 51.6909Z" fill="#26499F"/>
<path d="M40.0763 54.7289H42.1069C42.5226 54.7447 42.7759 54.8532 42.8685 55.0553C42.9456 55.2028 42.9841 55.4207 42.9841 55.7082V58.2742C42.9841 58.5227 42.8759 58.7601 42.6612 58.9855C42.0152 59.6615 41.0453 60 39.7533 60C38.6072 60 37.6107 59.5623 36.7646 58.6878C35.9186 57.8133 35.4956 56.758 35.4956 55.5218C35.4956 54.2856 35.926 53.2535 36.7885 52.4254C37.6501 51.5972 38.6659 51.1836 39.8349 51.1836C40.7424 51.1836 41.6004 51.4869 42.4079 52.0934C42.6153 52.2492 42.7199 52.4216 42.7199 52.6127C42.7199 52.8028 42.6309 53.0226 42.4547 53.272C42.1546 53.6838 41.8812 53.8906 41.6353 53.8906C41.4894 53.8906 41.2545 53.7839 40.9315 53.5697C40.6085 53.3564 40.224 53.2489 39.7771 53.2489C39.1926 53.2489 38.6733 53.4566 38.219 53.873C37.7648 54.2893 37.5382 54.8337 37.5382 55.506C37.5382 56.1784 37.7685 56.7496 38.231 57.2207C38.6925 57.6909 39.2156 57.9264 39.8001 57.9264C40.2231 57.9264 40.6039 57.856 40.9425 57.7169V56.4454H40.0313C39.7927 56.4454 39.6239 56.4148 39.5239 56.3518C39.4239 56.2897 39.3587 56.1988 39.3275 56.0773C39.2963 55.9567 39.2816 55.7935 39.2816 55.5876C39.2816 55.3818 39.2991 55.2167 39.3339 55.0924C39.3688 54.9682 39.4321 54.8829 39.5239 54.8356C39.6615 54.7632 39.846 54.7289 40.0763 54.7289Z" fill="#26499F"/>
<path d="M49.3659 51.9413L52.4821 58.4485C52.6124 58.7128 52.6785 58.9113 52.6785 59.043C52.6785 59.323 52.4555 59.5753 52.0096 59.8006C51.7481 59.9323 51.5425 59.9991 51.392 59.9991C51.2425 59.9991 51.1186 59.9638 51.0222 59.8943C50.9259 59.8247 50.8571 59.7505 50.8149 59.6726C50.7726 59.5947 50.713 59.4788 50.6359 59.323L50.0358 58.0637H46.8389L46.2388 59.323C46.1617 59.4788 46.102 59.591 46.0598 59.6615C46.0176 59.7311 45.9479 59.8034 45.8524 59.8776C45.7561 59.9518 45.6331 59.9889 45.4827 59.9889C45.3322 59.9889 45.1266 59.923 44.8651 59.7904C44.4191 59.5725 44.1962 59.324 44.1962 59.0439C44.1962 58.9122 44.2613 58.7138 44.3925 58.4495L47.5087 51.9302C47.5931 51.7512 47.7225 51.6074 47.895 51.4989C48.0685 51.3904 48.2511 51.3357 48.4428 51.3357C48.8585 51.3348 49.1659 51.537 49.3659 51.9413ZM48.4309 54.74L47.6693 56.3379H49.2045L48.4309 54.74Z" fill="#26499F"/>
<path d="M58.8741 51.498C59.2512 51.7623 59.4394 52.0192 59.4394 52.2677C59.4394 52.4152 59.3503 52.622 59.1742 52.8863L56.682 56.6532V58.8807C56.682 59.0597 56.6765 59.1941 56.6645 59.2832C56.6526 59.3722 56.6168 59.4751 56.5553 59.592C56.4939 59.7088 56.3902 59.7904 56.2433 59.8368C56.0974 59.8832 55.9011 59.9064 55.6552 59.9064C55.4092 59.9064 55.2129 59.8832 55.067 59.8368C54.9211 59.7904 54.8174 59.707 54.755 59.5864C54.6935 59.4659 54.6568 59.3611 54.6458 59.2711C54.6339 59.1821 54.6284 59.0439 54.6284 58.8575V56.6532L52.1362 52.8863C51.9591 52.622 51.871 52.4161 51.871 52.2677C51.871 52.0192 52.0398 51.7799 52.3784 51.5509C52.717 51.3218 52.9592 51.2068 53.1051 51.2068C53.251 51.2068 53.3667 51.2383 53.4511 51.3005C53.5814 51.3858 53.7199 51.5453 53.8668 51.779L55.6552 54.6714L57.4436 51.779C57.5895 51.5453 57.717 51.3923 57.8244 51.3181C57.9317 51.2439 58.0565 51.2077 58.1997 51.2077C58.3419 51.2068 58.5667 51.3042 58.8741 51.498Z" fill="#26499F"/>
<path d="M62.44 57.9589C62.5703 58.0915 62.6364 58.3632 62.6364 58.775V58.8213C62.6364 59.0077 62.6309 59.1459 62.619 59.2349C62.6071 59.3249 62.5667 59.4316 62.4979 59.5558C62.3822 59.7812 62.0923 59.8943 61.6271 59.8943C61.1618 59.8943 60.8535 59.8201 60.7039 59.6727C60.5544 59.5252 60.4791 59.2451 60.4791 58.8334V58.787C60.4791 58.6081 60.4846 58.4717 60.4966 58.379C60.5085 58.2853 60.5443 58.1805 60.6058 58.0637C60.7214 57.83 61.0113 57.7141 61.4775 57.7141C61.9418 57.7141 62.263 57.7957 62.44 57.9589Z" fill="#26499F"/>
<path d="M69.722 51.4628C70.1762 51.6881 70.4028 51.9366 70.4028 52.2093C70.4028 52.3336 70.345 52.52 70.2294 52.7694L67.0444 59.3008C66.96 59.4714 66.8306 59.6096 66.6581 59.7144C66.4847 59.8192 66.3057 59.872 66.1213 59.872H66.0057C65.813 59.872 65.6304 59.8192 65.4579 59.7144C65.2844 59.6096 65.156 59.4714 65.0716 59.3008L61.8866 52.7694C61.7709 52.5209 61.7131 52.3345 61.7131 52.2093C61.7131 51.9376 61.9398 51.6881 62.394 51.4628C62.6482 51.3311 62.8418 51.2643 62.9767 51.2643C63.1116 51.2643 63.2134 51.2801 63.2822 51.3107C63.352 51.3422 63.4171 51.396 63.4786 51.4739C63.5483 51.5676 63.6117 51.6705 63.6685 51.7827C63.7264 51.8958 63.8741 52.2186 64.1127 52.7509C64.3512 53.2832 64.6073 53.8489 64.8798 54.4479C65.1532 55.047 65.4111 55.6127 65.6533 56.145C65.8956 56.6773 66.0323 56.975 66.0626 57.0371L68.3703 51.9292C68.4318 51.7818 68.486 51.6649 68.5318 51.5796C68.6704 51.37 68.8392 51.2643 69.0393 51.2643C69.2411 51.2652 69.4678 51.3311 69.722 51.4628Z" fill="#26499F"/>
<path d="M77.0785 51.6909C77.1519 51.5546 77.2611 51.4637 77.407 51.4164C77.5529 51.37 77.7355 51.3468 77.9548 51.3468C78.1741 51.3468 78.3512 51.3663 78.4852 51.4053C78.6201 51.4442 78.7201 51.4906 78.7853 51.5453C78.8504 51.6 78.899 51.6816 78.9293 51.7901C78.9752 51.9144 78.9991 52.1128 78.9991 52.3845V58.8575C78.9991 59.0439 78.9936 59.1802 78.9816 59.2655C78.9697 59.3509 78.933 59.4519 78.8715 59.5688C78.7632 59.7784 78.4641 59.8841 77.9713 59.8841C77.6713 59.8841 77.4639 59.8609 77.3483 59.8145C77.2327 59.7682 77.1363 59.694 77.0602 59.5929C75.3296 57.2606 74.1908 55.7369 73.6449 55.021V58.8575C73.6449 59.0439 73.6393 59.1802 73.6274 59.2655C73.6155 59.3509 73.5797 59.4519 73.5182 59.5688C73.4099 59.7784 73.1108 59.8841 72.6181 59.8841C72.1409 59.8841 71.8491 59.7793 71.7408 59.5688C71.6793 59.4519 71.6426 59.3471 71.6307 59.2535C71.6188 59.1598 71.6133 59.0244 71.6133 58.8454V52.3382C71.6133 52.0424 71.65 51.8272 71.7234 51.6909C71.7968 51.5546 71.906 51.4637 72.0519 51.4164C72.1978 51.37 72.3868 51.3468 72.6171 51.3468C72.8475 51.3468 73.031 51.3682 73.1649 51.4108C73.2998 51.4535 73.3934 51.5026 73.4476 51.5564C73.4778 51.5796 73.5669 51.6807 73.7128 51.8597C75.336 54.0909 76.4206 55.5645 76.9666 56.2794V52.3372C76.9684 52.0423 77.0051 51.8263 77.0785 51.6909Z" fill="#26499F"/>
</g>
<defs>
<linearGradient id="paint0_linear" x1="17.4395" y1="22.382" x2="77.5914" y2="22.382" gradientUnits="userSpaceOnUse">
<stop stop-color="#F04C23"/>
<stop offset="0.2027" stop-color="#F16828"/>
<stop offset="0.6437" stop-color="#F5A13E"/>
<stop offset="1" stop-color="#FBD359"/>
</linearGradient>
<clipPath id="clip0">
<rect width="79" height="60" fill="white"/>
</clipPath>
</defs>
</svg>
