<svg width="28" height="28" viewBox="0 0 28 28" fill="none" xmlns="http://www.w3.org/2000/svg">
<g clip-path="url(#clip0)">
<path d="M0.00053205 14.0009C-0.117181 6.50951 6.15196 -0.163392 14.3057 0.00152116C21.7605 0.151883 28.1704 6.29973 27.9957 14.3465C27.8306 21.9907 21.4571 28.0391 13.9004 27.9991C6.2806 27.9591 -0.100192 21.6439 0.00053205 14.0009ZM13.7888 22.5254C15.1042 22.5254 16.4197 22.5303 17.734 22.5242C19.0046 22.5182 19.9196 21.616 19.9184 20.3549C19.9184 19.8092 19.9002 19.2599 19.8273 18.7203C19.6999 17.7794 19.4548 16.8723 18.8286 16.1145C18.0968 15.2281 17.0629 15.0619 16.12 15.6864C16.0168 15.7543 15.9173 15.8271 15.8093 15.8865C14.9853 16.3376 14.1261 16.5716 13.1711 16.3885C12.4527 16.2503 11.8398 15.9144 11.2416 15.5191C11.045 15.3893 10.7913 15.2559 10.5717 15.2681C9.71856 15.3178 9.0232 15.6876 8.56934 16.4394C7.79024 17.7333 7.59001 19.1678 7.74292 20.6253C7.87398 21.8755 8.73923 22.5242 10.0062 22.5254C11.2682 22.5267 12.5291 22.5254 13.7888 22.5254ZM10.4746 12.5919C10.329 14.2071 11.8653 15.9811 13.8143 15.9556C15.6831 15.9314 17.1855 14.4629 17.1915 12.6016C17.1988 10.7208 15.694 9.23906 13.8021 9.21723C11.8702 9.19541 10.3253 10.9597 10.4746 12.5919ZM16.8457 14.8425C17.8335 14.8837 18.5519 15.2281 19.1368 15.8586C19.1987 15.9253 19.3359 15.9435 19.4402 15.9447C19.8371 15.9532 20.2363 15.9629 20.6319 15.9411C21.4195 15.8986 22.0311 15.45 22.1052 14.7624C22.2047 13.8202 22.1331 12.8732 21.7557 11.9856C21.5154 11.4205 21.1537 11.349 20.5919 11.5818C20.0421 11.8085 19.4681 12.0123 18.8856 12.1093C18.4755 12.1784 18.0325 12.0535 17.5422 12.0086C17.6575 13.0042 17.4755 13.9245 16.8457 14.8425ZM10.0644 11.9977C9.92607 12.0074 9.85569 12.0013 9.79258 12.0183C8.85452 12.2754 7.98077 12.085 7.13857 11.6521C6.41652 11.2811 5.99056 11.4193 5.80004 12.2245C5.6265 12.9593 5.58767 13.7305 5.54762 14.4896C5.50758 15.239 5.84494 15.6913 6.57792 15.8465C7.05241 15.9471 7.55482 15.9459 8.04387 15.9362C8.25018 15.9326 8.49774 15.8356 8.64943 15.6985C9.16518 15.2317 9.74283 14.9346 10.4394 14.8728C10.5231 14.8655 10.6044 14.8158 10.7331 14.7697C10.1712 13.9197 9.96855 13.0139 10.0644 11.9977ZM11.1238 9.26331C11.1202 8.00828 10.1033 6.9994 8.85209 7.01031C7.60821 7.02123 6.60826 8.04223 6.60947 9.3009C6.61068 10.5511 7.63006 11.5757 8.86908 11.5721C10.1421 11.5685 11.1275 10.5584 11.1238 9.26331ZM20.9984 9.27422C21.1149 8.21806 20.1489 7.01638 18.7412 7.01395C17.4937 7.01274 16.478 8.06163 16.4865 9.3106C16.495 10.5547 17.5435 11.6012 18.7776 11.5709C20.1526 11.5369 21.1113 10.385 20.9984 9.27422Z" fill="url(#paint0_linear)"/>
<path d="M13.7895 22.5263C12.5286 22.5263 11.269 22.5276 10.0081 22.5263C8.74116 22.5239 7.8759 21.8764 7.74484 20.6262C7.59193 19.1687 7.79217 17.7354 8.57126 16.4403C9.02391 15.6885 9.72048 15.3187 10.5736 15.269C10.7933 15.2556 11.0469 15.3902 11.2435 15.52C11.8417 15.9153 12.4534 16.2512 13.173 16.3894C14.1268 16.5737 14.986 16.3385 15.8112 15.8874C15.9192 15.828 16.0188 15.7552 16.1219 15.6873C17.0636 15.0628 18.0975 15.229 18.8305 16.1154C19.4567 16.8732 19.7018 17.779 19.8293 18.7212C19.9021 19.2608 19.9203 19.8101 19.9203 20.3558C19.9215 21.6157 19.0053 22.5179 17.7359 22.5251C16.4204 22.5312 15.105 22.5263 13.7895 22.5263Z" fill="white"/>
<path d="M10.4753 12.5928C10.326 10.9606 11.8709 9.19631 13.804 9.21813C15.6947 9.23996 17.1995 10.7217 17.1935 12.6025C17.1862 14.465 15.685 15.9323 13.8162 15.9565C11.866 15.9808 10.3297 14.2067 10.4753 12.5928Z" fill="white"/>
<path d="M16.8463 14.8433C17.4761 13.9266 17.6582 13.0051 17.5429 12.0107C18.0332 12.0544 18.4761 12.1793 18.8863 12.1114C19.4688 12.0144 20.0428 11.8106 20.5925 11.5839C21.1544 11.3523 21.516 11.4226 21.7563 11.9877C22.1337 12.8753 22.2053 13.8211 22.1058 14.7645C22.033 15.4533 21.4201 15.9019 20.6326 15.9432C20.2357 15.9638 19.8377 15.9553 19.4409 15.9468C19.3377 15.9444 19.1994 15.9262 19.1375 15.8607C18.5538 15.2289 17.8341 14.8846 16.8463 14.8433Z" fill="white"/>
<path d="M10.0652 11.9986C9.96807 13.0148 10.1707 13.9194 10.735 14.7694C10.6064 14.8155 10.5263 14.8652 10.4413 14.8725C9.74478 14.9343 9.16713 15.2314 8.65138 15.6982C8.49847 15.8365 8.25212 15.9323 8.04582 15.9359C7.55677 15.9456 7.05436 15.9468 6.57987 15.8462C5.84689 15.691 5.50952 15.2387 5.54957 14.4893C5.58962 13.7302 5.62845 12.959 5.80199 12.2242C5.9913 11.419 6.41847 11.2808 7.14052 11.6518C7.98393 12.0847 8.85647 12.2751 9.79453 12.018C9.85764 12.0023 9.92802 12.0083 10.0652 11.9986Z" fill="white"/>
<path d="M11.1245 9.26423C11.1281 10.5605 10.1427 11.5694 8.87094 11.5742C7.63192 11.5779 6.61254 10.5532 6.61133 9.30303C6.61012 8.04436 7.61007 7.02335 8.85395 7.01244C10.1039 7.00031 11.1208 8.00919 11.1245 9.26423Z" fill="white"/>
<path d="M20.9991 9.27514C21.1119 10.3859 20.1544 11.5391 18.7783 11.5718C17.5441 11.6021 16.4944 10.5556 16.4871 9.31152C16.4786 8.06255 17.4944 7.01365 18.7419 7.01487C20.1496 7.01729 21.1156 8.21897 20.9991 9.27514Z" fill="white"/>
</g>
<defs>
<linearGradient id="paint0_linear" x1="13.9994" y1="1.89765" x2="13.9994" y2="27.4551" gradientUnits="userSpaceOnUse">
<stop stop-color="#32A4FC"/>
<stop offset="0.5" stop-color="#237DF5"/>
<stop offset="1" stop-color="#1558ED"/>
</linearGradient>
<clipPath id="clip0">
<rect width="28" height="28" fill="white"/>
</clipPath>
</defs>
</svg>
