<svg width="45" height="45" viewBox="0 0 45 45" fill="none" xmlns="http://www.w3.org/2000/svg">
<circle cx="22.5" cy="22.5" r="22.5" fill="#EEEEEE"/>
<path fill-rule="evenodd" clip-rule="evenodd" d="M25.9534 12.4042C25.0535 11.9837 24.0516 11.75 23 11.75C19.4419 11.75 16.4528 14.4254 16.0598 17.9618L15.7451 20.7945C15.6931 21.2623 15.6671 21.4962 15.628 21.7258C15.4873 22.5511 15.2178 23.3493 14.8296 24.0911C14.7216 24.2975 14.6005 24.4992 14.3584 24.9028L13.5674 26.221C12.7617 27.5639 12.3588 28.2354 12.646 28.7427C12.9333 29.25 13.7163 29.25 15.2824 29.25H30.7177C32.2838 29.25 33.0668 29.25 33.354 28.7427C33.6413 28.2354 33.2384 27.5639 32.4326 26.221L31.6417 24.9028C31.3996 24.4992 31.2785 24.2975 31.1705 24.0911C30.7822 23.3493 30.5128 22.5511 30.3721 21.7258C30.339 21.5317 30.3153 21.3345 30.2774 20.9956C27.343 20.8787 25 18.463 25 15.5C25 14.352 25.3518 13.2861 25.9534 12.4042ZM28.3426 14.236C28.1249 14.6069 28 15.0389 28 15.5C28 16.6872 28.8276 17.6812 29.9374 17.9364C29.7756 16.5267 29.2011 15.2548 28.3426 14.236Z" fill="#2F2F2F"/>
<path d="M19.25 29.25C19.25 29.7425 19.347 30.2301 19.5355 30.6851C19.7239 31.14 20.0001 31.5534 20.3483 31.9017C20.6966 32.2499 21.11 32.5261 21.5649 32.7145C22.0199 32.903 22.5075 33 23 33C23.4925 33 23.9801 32.903 24.4351 32.7145C24.89 32.5261 25.3034 32.2499 25.6517 31.9017C25.9999 31.5534 26.2761 31.14 26.4645 30.6851C26.653 30.2301 26.75 29.7425 26.75 29.25L23 29.25H19.25Z" fill="#2F2F2F"/>
<path d="M30.5 18.5C32.1569 18.5 33.5 17.1569 33.5 15.5C33.5 13.8431 32.1569 12.5 30.5 12.5C28.8431 12.5 27.5 13.8431 27.5 15.5C27.5 17.1569 28.8431 18.5 30.5 18.5Z" fill="#2F2F2F" stroke="#2F2F2F"/>
</svg>
