<svg width="45" height="45" viewBox="0 0 45 45" fill="none" xmlns="http://www.w3.org/2000/svg">
<circle cx="22.5" cy="22.5" r="22.5" fill="#EEEEEE"/>
<path d="M21.93 27.46C21.49 27.46 21.14 27.32 20.88 27.04C20.64 26.74 20.52 26.34 20.52 25.84C20.52 24.98 20.68 24.18 21 23.44C21.32 22.7 21.87 21.91 22.65 21.07C23.21 20.47 23.6 19.96 23.82 19.54C24.04 19.1 24.15 18.65 24.15 18.19C24.15 17.63 23.94 17.19 23.52 16.87C23.12 16.55 22.54 16.39 21.78 16.39C21.06 16.39 20.39 16.48 19.77 16.66C19.17 16.84 18.58 17.1 18 17.44C17.34 17.78 16.78 17.87 16.32 17.71C15.86 17.53 15.53 17.21 15.33 16.75C15.15 16.29 15.15 15.8 15.33 15.28C15.53 14.76 15.95 14.32 16.59 13.96C17.41 13.5 18.31 13.15 19.29 12.91C20.29 12.65 21.23 12.52 22.11 12.52C23.43 12.52 24.59 12.74 25.59 13.18C26.59 13.6 27.36 14.2 27.9 14.98C28.46 15.74 28.74 16.63 28.74 17.65C28.74 18.57 28.53 19.42 28.11 20.2C27.71 20.98 26.99 21.8 25.95 22.66C25.01 23.44 24.37 24.11 24.03 24.67C23.69 25.21 23.47 25.79 23.37 26.41C23.31 26.73 23.16 26.99 22.92 27.19C22.7 27.37 22.37 27.46 21.93 27.46ZM21.87 34.15C21.07 34.15 20.43 33.91 19.95 33.43C19.49 32.95 19.26 32.33 19.26 31.57C19.26 30.83 19.49 30.23 19.95 29.77C20.43 29.29 21.07 29.05 21.87 29.05C22.67 29.05 23.29 29.29 23.73 29.77C24.19 30.23 24.42 30.83 24.42 31.57C24.42 32.33 24.19 32.95 23.73 33.43C23.29 33.91 22.67 34.15 21.87 34.15Z" fill="#2F2F2F"/>
</svg>
