<svg width="32" height="32" viewBox="0 0 32 32" fill="none" xmlns="http://www.w3.org/2000/svg">
<path d="M15.997 32C24.8319 32 31.994 24.8366 31.994 16C31.994 7.16344 24.8319 0 15.997 0C7.16211 0 0 7.16344 0 16C0 24.8366 7.16211 32 15.997 32Z" fill="url(#paint0_radial)"/>
<path d="M5.21762 16.8003C5.08779 16.8003 4.956 16.7678 4.83477 16.6997C4.45817 16.4877 4.32483 16.0109 4.53679 15.6343C5.09093 14.6494 5.89066 13.8116 6.84917 13.2115C7.83426 12.5951 8.96952 12.2431 10.1329 12.193C10.5659 12.1742 10.9296 12.5094 10.9479 12.9409C10.9663 13.3727 10.6316 13.7376 10.2002 13.756C9.30663 13.7943 8.43494 14.0646 7.67862 14.5379C6.94106 14.9994 6.32591 15.6437 5.89964 16.4013C5.75651 16.6567 5.49098 16.8003 5.21762 16.8003Z" fill="#EF8B3D"/>
<path d="M26.7764 16.8003C26.503 16.8003 26.2375 16.6567 26.094 16.4013C25.6677 15.6437 25.0526 14.9994 24.315 14.5379C23.5591 14.065 22.687 13.7943 21.7934 13.756C21.3617 13.7376 21.0269 13.3727 21.0457 12.9409C21.0641 12.5091 21.4281 12.1742 21.8607 12.193C23.0241 12.2431 24.1594 12.5951 25.1445 13.2115C26.1034 13.8116 26.9027 14.649 27.4569 15.6343C27.6688 16.0109 27.5351 16.4877 27.1589 16.6997C27.038 16.7678 26.9062 16.8003 26.7764 16.8003Z" fill="#EF8B3D"/>
<path d="M26.7635 20.2213C26.7635 20.2213 24.2157 23.1587 24.2157 26.0446C24.2157 27.7609 25.3564 29.1526 26.7635 29.1526C28.1706 29.1526 29.3113 27.7609 29.3113 26.0446C29.3117 23.1587 26.7635 20.2213 26.7635 20.2213Z" fill="url(#paint1_radial)"/>
<path d="M15.997 23.883C13.3671 23.883 11.235 25.3854 11.235 27.2382C11.235 29.091 11.9894 26.6253 15.997 26.6253C20.0047 26.6253 20.759 29.0914 20.759 27.2382C20.759 25.385 18.6269 23.883 15.997 23.883Z" fill="url(#paint2_radial)"/>
<path d="M8.90579 15.9999C7.87571 15.9999 7.04041 16.9958 7.04041 18.224C7.04041 18.7962 7.22185 19.3184 7.51984 19.7123C7.86125 20.164 8.35555 20.1198 8.90579 20.1198C9.45602 20.1198 9.95032 20.164 10.2917 19.7123C10.5897 19.318 10.7712 18.7962 10.7712 18.224C10.7708 16.9958 9.93586 15.9999 8.90579 15.9999Z" fill="url(#paint3_linear)"/>
<path d="M23.0886 15.9999C24.1187 15.9999 24.954 16.9958 24.954 18.224C24.954 18.7962 24.7725 19.3184 24.4745 19.7123C24.1331 20.164 23.6388 20.1198 23.0886 20.1198C22.5384 20.1198 22.044 20.164 21.7026 19.7123C21.4047 19.318 21.2232 18.7962 21.2232 18.224C21.2232 16.9958 22.0581 15.9999 23.0886 15.9999Z" fill="url(#paint4_linear)"/>
<mask id="mask0" mask-type="alpha" maskUnits="userSpaceOnUse" x="7" y="16" width="2" height="2">
<path d="M8.34496 17.3045C8.29842 17.5732 8.05167 17.7688 7.79396 17.7406C7.53625 17.7128 7.36496 17.4719 7.41149 17.2032C7.45803 16.9344 7.70478 16.7389 7.96249 16.767C8.22059 16.7948 8.39189 17.0354 8.34496 17.3045Z" fill="url(#paint5_linear)"/>
</mask>
<g mask="url(#mask0)">
<path opacity="0.1" d="M8.34496 17.3045C8.29842 17.5732 8.05167 17.7688 7.79396 17.7406C7.53625 17.7128 7.36496 17.4719 7.41149 17.2032C7.45803 16.9344 7.70478 16.7389 7.96249 16.767C8.22059 16.7948 8.39189 17.0354 8.34496 17.3045Z" fill="url(#paint6_linear)"/>
</g>
<mask id="mask1" mask-type="alpha" maskUnits="userSpaceOnUse" x="7" y="18" width="4" height="3">
<path d="M7.65485 19.2872C7.65485 18.7403 8.21484 18.2972 8.90586 18.2972C9.59687 18.2972 10.1569 18.7403 10.1569 19.2872C10.1569 19.834 9.59687 20.0115 8.90586 20.0115C8.21484 20.0115 7.65485 19.834 7.65485 19.2872Z" fill="url(#paint7_linear)"/>
</mask>
<g mask="url(#mask1)">
<path opacity="0.1" d="M7.65485 19.2872C7.65485 18.7403 8.21484 18.2972 8.90586 18.2972C9.59687 18.2972 10.1569 18.7403 10.1569 19.2872C10.1569 19.834 9.59687 20.0115 8.90586 20.0115C8.21484 20.0115 7.65485 19.834 7.65485 19.2872Z" fill="url(#paint8_linear)"/>
</g>
<mask id="mask2" mask-type="alpha" maskUnits="userSpaceOnUse" x="7" y="18" width="2" height="2">
<path d="M8.35283 18.912C8.22144 19.056 8.04431 19.1319 7.95671 19.0818C7.86912 19.0317 7.90472 18.8745 8.03611 18.7309C8.16749 18.587 8.34463 18.5111 8.43222 18.5612C8.51942 18.6113 8.48422 18.7681 8.35283 18.912Z" fill="url(#paint9_linear)"/>
</mask>
<g mask="url(#mask2)">
<path opacity="0.1" d="M8.35283 18.912C8.22144 19.056 8.04431 19.1319 7.95671 19.0818C7.86912 19.0317 7.90472 18.8745 8.03611 18.7309C8.16749 18.587 8.34463 18.5111 8.43222 18.5612C8.51942 18.6113 8.48422 18.7681 8.35283 18.912Z" fill="url(#paint10_linear)"/>
</g>
<mask id="mask3" mask-type="alpha" maskUnits="userSpaceOnUse" x="21" y="18" width="4" height="3">
<path d="M21.8376 19.2871C21.8376 18.7403 22.3976 18.2971 23.0887 18.2971C23.7797 18.2971 24.3397 18.7403 24.3397 19.2871C24.3397 19.8339 23.7797 20.0115 23.0887 20.0115C22.3976 20.0115 21.8376 19.8339 21.8376 19.2871Z" fill="url(#paint11_linear)"/>
</mask>
<g mask="url(#mask3)">
<path opacity="0.1" d="M21.8376 19.2871C21.8376 18.7403 22.3976 18.2971 23.0887 18.2971C23.7797 18.2971 24.3397 18.7403 24.3397 19.2871C24.3397 19.8339 23.7797 20.0115 23.0887 20.0115C22.3976 20.0115 21.8376 19.8339 21.8376 19.2871Z" fill="url(#paint12_linear)"/>
</g>
<mask id="mask4" mask-type="alpha" maskUnits="userSpaceOnUse" x="22" y="18" width="1" height="2">
<path d="M22.5356 18.912C22.4043 19.0559 22.2271 19.1318 22.1395 19.0817C22.0519 19.0317 22.0875 18.8744 22.2189 18.7309C22.3503 18.5869 22.5274 18.5111 22.615 18.5611C22.7026 18.6112 22.667 18.768 22.5356 18.912Z" fill="url(#paint13_linear)"/>
</mask>
<g mask="url(#mask4)">
<path opacity="0.1" d="M22.5356 18.912C22.4043 19.0559 22.2271 19.1318 22.1395 19.0817C22.0519 19.0317 22.0875 18.8744 22.2189 18.7309C22.3503 18.5869 22.5274 18.5111 22.615 18.5611C22.7026 18.6112 22.667 18.768 22.5356 18.912Z" fill="url(#paint14_linear)"/>
</g>
<mask id="mask5" mask-type="alpha" maskUnits="userSpaceOnUse" x="25" y="26" width="4" height="3">
<path d="M25.2954 27.8602C25.2954 27.0494 25.9528 26.3918 26.7635 26.3918C27.5742 26.3918 28.2315 27.0494 28.2315 27.8602C28.2315 28.671 27.5742 28.9343 26.7635 28.9343C25.9528 28.9343 25.2954 28.671 25.2954 27.8602Z" fill="url(#paint15_linear)"/>
</mask>
<g mask="url(#mask5)">
<path opacity="0.15" d="M25.2954 27.8602C25.2954 27.0494 25.9528 26.3918 26.7635 26.3918C27.5742 26.3918 28.2315 27.0494 28.2315 27.8602C28.2315 28.671 27.5742 28.9343 26.7635 28.9343C25.9528 28.9343 25.2954 28.671 25.2954 27.8602Z" fill="url(#paint16_linear)"/>
</g>
<mask id="mask6" mask-type="alpha" maskUnits="userSpaceOnUse" x="24" y="22" width="2" height="3">
<path d="M25.8055 23.5674C25.5904 24.0712 25.2439 24.4056 25.0312 24.3149C24.8184 24.2241 24.8204 23.7422 25.0355 23.2385C25.2505 22.7347 25.597 22.4002 25.8098 22.491C26.0221 22.5817 26.0206 23.0636 25.8055 23.5674Z" fill="url(#paint17_linear)"/>
</mask>
<g mask="url(#mask6)">
<path opacity="0.15" d="M25.8055 23.5674C25.5904 24.0712 25.2439 24.4056 25.0312 24.3149C24.8184 24.2241 24.8204 23.7422 25.0355 23.2385C25.2505 22.7347 25.597 22.4002 25.8098 22.491C26.0221 22.5817 26.0206 23.0636 25.8055 23.5674Z" fill="url(#paint18_linear)"/>
</g>
<defs>
<radialGradient id="paint0_radial" cx="0" cy="0" r="1" gradientUnits="userSpaceOnUse" gradientTransform="translate(29.1215 6.92071) scale(32.0516 32.0576)">
<stop stop-color="#FEE466"/>
<stop offset="1" stop-color="#F7A53A"/>
</radialGradient>
<radialGradient id="paint1_radial" cx="0" cy="0" r="1" gradientUnits="userSpaceOnUse" gradientTransform="translate(28.9971 21.3401) scale(6.83875 8.34153)">
<stop stop-color="#33A4FE"/>
<stop offset="0.3083" stop-color="#34A0FD"/>
<stop offset="0.6284" stop-color="#3993FB"/>
<stop offset="0.9529" stop-color="#407FF7"/>
<stop offset="1" stop-color="#417BF6"/>
</radialGradient>
<radialGradient id="paint2_radial" cx="0" cy="0" r="1" gradientUnits="userSpaceOnUse" gradientTransform="translate(14.9254 19.8447) scale(9.4364 9.43815)">
<stop stop-color="#80370D"/>
<stop offset="1" stop-color="#4B2313"/>
</radialGradient>
<linearGradient id="paint3_linear" x1="8.90564" y1="20.7242" x2="8.90564" y2="15.6388" gradientUnits="userSpaceOnUse">
<stop stop-color="#37486D"/>
<stop offset="1" stop-color="#232645"/>
</linearGradient>
<linearGradient id="paint4_linear" x1="23.0885" y1="20.7242" x2="23.0885" y2="15.6388" gradientUnits="userSpaceOnUse">
<stop stop-color="#37486D"/>
<stop offset="1" stop-color="#232645"/>
</linearGradient>
<linearGradient id="paint5_linear" x1="7.40424" y1="17.2537" x2="8.35279" y2="17.2537" gradientUnits="userSpaceOnUse">
<stop stop-color="white"/>
<stop offset="0.1444" stop-color="#FBFBFB"/>
<stop offset="0.2944" stop-color="#EEEEEE"/>
<stop offset="0.447" stop-color="#DADADA"/>
<stop offset="0.6015" stop-color="#BCBCBC"/>
<stop offset="0.7573" stop-color="#979797"/>
<stop offset="0.9121" stop-color="#6A6A6A"/>
<stop offset="1" stop-color="#4D4D4D"/>
</linearGradient>
<linearGradient id="paint6_linear" x1="7.40424" y1="17.2537" x2="8.35279" y2="17.2537" gradientUnits="userSpaceOnUse">
<stop stop-color="white"/>
<stop offset="1" stop-color="white"/>
</linearGradient>
<linearGradient id="paint7_linear" x1="8.90573" y1="20.3325" x2="8.90573" y2="18.417" gradientUnits="userSpaceOnUse">
<stop stop-color="white"/>
<stop offset="0.1444" stop-color="#FBFBFB"/>
<stop offset="0.2944" stop-color="#EEEEEE"/>
<stop offset="0.447" stop-color="#DADADA"/>
<stop offset="0.6015" stop-color="#BCBCBC"/>
<stop offset="0.7573" stop-color="#979797"/>
<stop offset="0.9121" stop-color="#6A6A6A"/>
<stop offset="1" stop-color="#4D4D4D"/>
</linearGradient>
<linearGradient id="paint8_linear" x1="8.90573" y1="20.3325" x2="8.90573" y2="18.417" gradientUnits="userSpaceOnUse">
<stop stop-color="white"/>
<stop offset="1" stop-color="white"/>
</linearGradient>
<linearGradient id="paint9_linear" x1="8.01397" y1="18.7422" x2="8.34964" y2="18.9429" gradientUnits="userSpaceOnUse">
<stop stop-color="white"/>
<stop offset="0.1444" stop-color="#FBFBFB"/>
<stop offset="0.2944" stop-color="#EEEEEE"/>
<stop offset="0.447" stop-color="#DADADA"/>
<stop offset="0.6015" stop-color="#BCBCBC"/>
<stop offset="0.7573" stop-color="#979797"/>
<stop offset="0.9121" stop-color="#6A6A6A"/>
<stop offset="1" stop-color="#4D4D4D"/>
</linearGradient>
<linearGradient id="paint10_linear" x1="8.01397" y1="18.7422" x2="8.34964" y2="18.9429" gradientUnits="userSpaceOnUse">
<stop stop-color="white"/>
<stop offset="1" stop-color="white"/>
</linearGradient>
<linearGradient id="paint11_linear" x1="23.0885" y1="20.3324" x2="23.0885" y2="18.4169" gradientUnits="userSpaceOnUse">
<stop stop-color="white"/>
<stop offset="0.1444" stop-color="#FBFBFB"/>
<stop offset="0.2944" stop-color="#EEEEEE"/>
<stop offset="0.447" stop-color="#DADADA"/>
<stop offset="0.6015" stop-color="#BCBCBC"/>
<stop offset="0.7573" stop-color="#979797"/>
<stop offset="0.9121" stop-color="#6A6A6A"/>
<stop offset="1" stop-color="#4D4D4D"/>
</linearGradient>
<linearGradient id="paint12_linear" x1="23.0885" y1="20.3324" x2="23.0885" y2="18.4169" gradientUnits="userSpaceOnUse">
<stop stop-color="white"/>
<stop offset="1" stop-color="white"/>
</linearGradient>
<linearGradient id="paint13_linear" x1="22.1968" y1="18.7421" x2="22.5325" y2="18.9429" gradientUnits="userSpaceOnUse">
<stop stop-color="white"/>
<stop offset="0.1444" stop-color="#FBFBFB"/>
<stop offset="0.2944" stop-color="#EEEEEE"/>
<stop offset="0.447" stop-color="#DADADA"/>
<stop offset="0.6015" stop-color="#BCBCBC"/>
<stop offset="0.7573" stop-color="#979797"/>
<stop offset="0.9121" stop-color="#6A6A6A"/>
<stop offset="1" stop-color="#4D4D4D"/>
</linearGradient>
<linearGradient id="paint14_linear" x1="22.1968" y1="18.7421" x2="22.5325" y2="18.9429" gradientUnits="userSpaceOnUse">
<stop stop-color="white"/>
<stop offset="1" stop-color="white"/>
</linearGradient>
<linearGradient id="paint15_linear" x1="26.7636" y1="29.0893" x2="26.7636" y2="27.1285" gradientUnits="userSpaceOnUse">
<stop stop-color="white"/>
<stop offset="0.1202" stop-color="#FBFBFB"/>
<stop offset="0.2451" stop-color="#EEEEEE"/>
<stop offset="0.3721" stop-color="#DADADA"/>
<stop offset="0.5008" stop-color="#BCBCBC"/>
<stop offset="0.6306" stop-color="#979797"/>
<stop offset="0.7614" stop-color="#696969"/>
<stop offset="0.8905" stop-color="#333333"/>
<stop offset="1"/>
</linearGradient>
<linearGradient id="paint16_linear" x1="26.7636" y1="29.0893" x2="26.7636" y2="27.1285" gradientUnits="userSpaceOnUse">
<stop stop-color="white"/>
<stop offset="1" stop-color="white"/>
</linearGradient>
<linearGradient id="paint17_linear" x1="24.9958" y1="23.3334" x2="25.7993" y2="23.6063" gradientUnits="userSpaceOnUse">
<stop stop-color="white"/>
<stop offset="0.1202" stop-color="#FBFBFB"/>
<stop offset="0.2451" stop-color="#EEEEEE"/>
<stop offset="0.3721" stop-color="#DADADA"/>
<stop offset="0.5008" stop-color="#BCBCBC"/>
<stop offset="0.6306" stop-color="#979797"/>
<stop offset="0.7614" stop-color="#696969"/>
<stop offset="0.8905" stop-color="#333333"/>
<stop offset="1"/>
</linearGradient>
<linearGradient id="paint18_linear" x1="24.9958" y1="23.3334" x2="25.7993" y2="23.6063" gradientUnits="userSpaceOnUse">
<stop stop-color="white"/>
<stop offset="1" stop-color="white"/>
</linearGradient>
</defs>
</svg>
