<svg width="42" height="42" viewBox="0 0 42 42" fill="none" xmlns="http://www.w3.org/2000/svg">
<g filter="url(#filter0_d)">
<rect x="8" y="6" width="25.2778" height="26" rx="12.6389" fill="#F04C24"/>
</g>
<path d="M24.3966 20.6846C24.3191 21.7555 23.9226 22.5986 23.2072 23.2139C22.4962 23.8291 21.5574 24.1367 20.3907 24.1367C19.1147 24.1367 18.1098 23.7083 17.3761 22.8516C16.6469 21.9902 16.2823 20.8099 16.2823 19.3105V18.7021C16.2823 17.7451 16.451 16.902 16.7882 16.1729C17.1254 15.4437 17.6062 14.8854 18.2306 14.498C18.8595 14.1061 19.5887 13.9102 20.4181 13.9102C21.5665 13.9102 22.4917 14.2178 23.1935 14.833C23.8953 15.4482 24.3009 16.3118 24.4103 17.4238H22.3595C22.3094 16.7812 22.1294 16.3164 21.8195 16.0293C21.5141 15.7376 21.047 15.5918 20.4181 15.5918C19.7345 15.5918 19.2218 15.8379 18.88 16.3301C18.5428 16.8177 18.3696 17.5765 18.3605 18.6064V19.3584C18.3605 20.4339 18.5223 21.2201 18.8458 21.7168C19.174 22.2135 19.6889 22.4619 20.3907 22.4619C21.0242 22.4619 21.4959 22.3184 21.8058 22.0312C22.1202 21.7396 22.3003 21.2907 22.3458 20.6846H24.3966Z" fill="white"/>
<defs>
<filter id="filter0_d" x="0" y="0" width="41.2778" height="42" filterUnits="userSpaceOnUse" color-interpolation-filters="sRGB">
<feFlood flood-opacity="0" result="BackgroundImageFix"/>
<feColorMatrix in="SourceAlpha" type="matrix" values="0 0 0 0 0 0 0 0 0 0 0 0 0 0 0 0 0 0 127 0"/>
<feMorphology radius="2" operator="dilate" in="SourceAlpha" result="effect1_dropShadow"/>
<feOffset dy="2"/>
<feGaussianBlur stdDeviation="3"/>
<feColorMatrix type="matrix" values="0 0 0 0 0 0 0 0 0 0 0 0 0 0 0 0 0 0 0.05 0"/>
<feBlend mode="normal" in2="BackgroundImageFix" result="effect1_dropShadow"/>
<feBlend mode="normal" in="SourceGraphic" in2="effect1_dropShadow" result="shape"/>
</filter>
</defs>
</svg>
