<svg width="27" height="27" viewBox="0 0 27 27" fill="none" xmlns="http://www.w3.org/2000/svg">
<path d="M13.5 27C6.04521 27 0 20.9567 0 13.5C0 6.04521 6.04521 0 13.5 0C20.9567 0 27 6.04521 27 13.5C27 20.9567 20.9567 27 13.5 27Z" fill="black"/>
<path d="M21.5255 9.3156C19.2733 9.3156 17.4453 7.4895 17.4453 5.23532H14.387V17.077C14.387 18.4538 13.2705 19.5703 11.8937 19.5703C10.5169 19.5703 9.40042 18.4538 9.40042 17.077C9.40042 15.7002 10.5169 14.5837 11.8937 14.5837C12.1521 14.5837 12.4452 14.6223 12.6785 14.6955V11.5813C12.4221 11.5447 12.1598 11.5254 11.8937 11.5254C8.82771 11.5254 6.34021 14.011 6.34021 17.0789C6.34021 20.1468 8.82578 22.6324 11.8937 22.6324C14.9597 22.6324 17.4472 20.1468 17.4472 17.0789V10.812C18.5598 11.7183 19.979 12.264 21.5275 12.264V9.3156H21.5255Z" fill="#FF1352"/>
<path d="M20.6597 8.44978C18.4074 8.44978 16.5794 6.62368 16.5794 4.36951H13.5211V16.2112C13.5211 17.588 12.4047 18.7045 11.0279 18.7045C9.65105 18.7045 8.53457 17.588 8.53457 16.2112C8.53457 14.8344 9.65105 13.7179 11.0279 13.7179C11.2862 13.7179 11.5793 13.7564 11.8127 13.8297V10.7136C11.5562 10.677 11.294 10.6577 11.0279 10.6577C7.96187 10.6577 5.47437 13.1433 5.47437 16.2112C5.47437 19.2791 7.95994 21.7647 11.0279 21.7647C14.0958 21.7647 16.5813 19.2791 16.5813 16.2112V9.94421C17.694 10.8505 19.1132 11.3962 20.6616 11.3962V8.44978H20.6597Z" fill="#00F1EA"/>
<path d="M20.6597 9.22303C19.6744 9.00899 18.8201 8.44014 18.2417 7.65533C17.4568 7.07684 16.888 6.2226 16.6739 5.23724H14.387V17.0789C14.387 18.4557 13.2705 19.5722 11.8937 19.5722C10.9835 19.5722 10.1872 19.0843 9.75137 18.3554C9.02247 17.9196 8.53461 17.1233 8.53461 16.2131C8.53461 14.8363 9.65109 13.7198 11.0279 13.7198C11.2863 13.7198 11.5794 13.7584 11.8127 13.8317V11.5273C8.78336 11.5698 6.34021 14.0399 6.34021 17.0789C6.34021 18.3921 6.79529 19.5973 7.55696 20.5479C8.50761 21.3096 9.7128 21.7647 11.026 21.7647C14.092 21.7647 16.5795 19.2791 16.5795 16.2112V9.94421C17.6921 10.8505 19.1113 11.3962 20.6597 11.3962V9.22303Z" fill="white"/>
</svg>
