<svg width="28" height="28" viewBox="0 0 28 28" fill="none" xmlns="http://www.w3.org/2000/svg">
<path d="M14 0C6.26792 0 0 6.26792 0 14C0 21.7318 6.26792 28 14 28C21.7321 28 28 21.7318 28 14C28 6.26792 21.7321 0 14 0ZM20.7623 19.4287C18.7317 20.674 16.3934 21.3324 14 21.3324C11.6066 21.3324 9.26827 20.674 7.23747 19.4287C5.26493 18.2189 3.64787 16.5008 2.5613 14.4602L2.31621 14L2.5613 13.5398C3.64787 11.4992 5.26493 9.78107 7.23747 8.5711C9.26827 7.32572 11.6066 6.66739 14 6.66739C16.3934 6.66739 18.7317 7.32572 20.7623 8.5711C22.7351 9.78107 24.3521 11.4992 25.4387 13.5398L25.6838 14L25.4387 14.4602C24.3521 16.5008 22.7351 18.2189 20.7623 19.4287Z" fill="url(#paint0_linear)"/>
<path d="M13.9998 19.0147C16.7695 19.0147 19.0147 16.7695 19.0147 13.9998C19.0147 11.2301 16.7695 8.98488 13.9998 8.98488C11.2301 8.98488 8.98486 11.2301 8.98486 13.9998C8.98486 16.7695 11.2301 19.0147 13.9998 19.0147Z" fill="#288AF8"/>
<defs>
<linearGradient id="paint0_linear" x1="14" y1="0" x2="14" y2="28" gradientUnits="userSpaceOnUse">
<stop stop-color="#32A4FD"/>
<stop offset="1" stop-color="#175DEE"/>
</linearGradient>
</defs>
</svg>
