<svg width="28" height="28" viewBox="0 0 28 28" fill="none" xmlns="http://www.w3.org/2000/svg">
<g opacity="0.5">
<path opacity="0.5" d="M13.9835 27.5025C21.5301 27.5025 27.6479 21.3847 27.6479 13.838C27.6479 6.2913 21.5301 0.1735 13.9835 0.1735C6.43677 0.1735 0.31897 6.2913 0.31897 13.838C0.31897 21.3847 6.43677 27.5025 13.9835 27.5025Z" fill="black"/>
</g>
<path d="M13.9999 27.9998C21.7318 27.9998 27.9998 21.7318 27.9998 13.9999C27.9998 6.26796 21.7318 0 13.9999 0C6.26796 0 0 6.26796 0 13.9999C0 21.7318 6.26796 27.9998 13.9999 27.9998Z" fill="url(#paint0_linear)"/>
<path d="M14 27.3524C12.1975 27.3524 10.4488 26.9993 8.80254 26.303C7.21264 25.6304 5.78463 24.6676 4.55832 23.4415C3.33202 22.2152 2.36925 20.7872 1.69686 19.1973C1.0006 17.5513 0.647461 15.8026 0.647461 13.9999C0.647461 12.1972 1.0006 10.4488 1.69686 8.80247C2.36948 7.21257 3.33224 5.78456 4.55832 4.55826C5.78463 3.33195 7.21264 2.36918 8.80254 1.69679C10.4488 1.00053 12.1975 0.647392 14 0.647392C15.8025 0.647392 17.5511 1.00053 19.1974 1.69679C20.7873 2.36941 22.2153 3.33217 23.4416 4.55826C24.6679 5.78456 25.6307 7.21257 26.3031 8.80247C26.9993 10.4488 27.3525 12.1974 27.3525 13.9999C27.3525 15.8024 26.9993 17.551 26.3031 19.1973C25.6307 20.7872 24.6677 22.2152 23.4416 23.4415C22.2153 24.6679 20.7873 25.6306 19.1974 26.303C17.5513 26.9995 15.8027 27.3524 14 27.3524ZM14 0.731526C6.68373 0.731526 0.731595 6.68366 0.731595 13.9999C0.731595 21.3161 6.68373 27.2683 14 27.2683C21.3162 27.2683 27.2683 21.3161 27.2683 13.9999C27.2686 6.68366 21.3162 0.731526 14 0.731526Z" fill="url(#paint1_linear)"/>
<path d="M9.94032 18.7043L7.98364 13.3054H8.82225L9.75182 15.9686C10.0247 16.7554 10.2898 17.5308 10.4097 18.0326H10.4251C10.5384 17.5817 10.831 16.7731 11.1107 15.993L12.0791 13.3052H12.8832L10.8622 18.7041H9.94032V18.7043Z" fill="white"/>
<path d="M14.4549 13.3054V18.7043H13.6741V13.3054H14.4549Z" fill="white"/>
<path d="M15.9038 13.3054H17.9801C19.045 13.3054 19.7722 13.9005 19.7722 14.8908C19.7722 15.9602 18.9958 16.515 17.9392 16.515H16.689V18.7043H15.9038V13.3054ZM16.689 15.8656H17.8876C18.5984 15.8656 18.9702 15.5266 18.9702 14.9097C18.9702 14.2662 18.5286 13.9546 17.9153 13.9546H16.689V15.8656V15.8656Z" fill="white"/>
<path d="M12.4362 23.2155C10.0943 22.8837 7.94207 21.7156 6.37604 19.9265C5.60156 19.0418 4.9967 18.039 4.57785 16.9461C4.14422 15.8149 3.92456 14.6213 3.92456 13.3989C3.92456 11.4392 4.49531 9.54441 5.57518 7.91904C6.62822 6.33391 8.10238 5.091 9.83805 4.3247L9.84737 4.34562C6.26303 5.92847 3.9473 9.48211 3.9473 13.3991C3.9473 18.2966 7.59803 22.5069 12.4394 23.1927L12.4362 23.2155Z" fill="#FFFEFC"/>
<path d="M11.357 22.8983C10.7578 23.105 10.2155 21.4039 10.5577 20.5819C11.2713 20.9334 11.9762 22.6845 11.357 22.8983ZM9.09583 23.9927C9.91579 24.3397 11.6201 23.8076 11.417 23.2073C11.2071 22.587 9.45169 23.2814 9.09583 23.9927Z" fill="#FFFEFC"/>
<path d="M7.68921 23.1407C8.4114 23.5632 10.0643 23.2732 9.94766 22.6891C9.82691 22.0856 8.1067 22.5206 7.68921 23.1407Z" fill="#FFFEFC"/>
<path d="M10.083 22.4615C10.6519 22.2852 10.1173 20.6944 9.40125 20.2617C9.05585 20.9246 9.49493 22.6436 10.083 22.4615Z" fill="#FFFEFC"/>
<path d="M6.5332 22.4371C7.22651 22.8558 8.83028 22.5974 8.72523 22.0306C8.61654 21.4448 6.94569 21.8425 6.5332 22.4371Z" fill="#FFFEFC"/>
<path d="M8.85912 21.8121C9.41213 21.649 8.91619 20.1023 8.22901 19.6737C7.88588 20.3106 8.28768 21.9803 8.85912 21.8121Z" fill="#FFFEFC"/>
<path d="M5.38257 21.3236C5.9972 21.8089 7.56709 21.7543 7.53458 21.1979C7.50069 20.6228 5.85008 20.8029 5.38257 21.3236Z" fill="#FFFEFC"/>
<path d="M7.68939 21.0044C8.23967 20.9148 7.95044 19.3708 7.34263 18.8769C6.93651 19.4465 7.12092 21.0969 7.68939 21.0044Z" fill="#FFFEFC"/>
<path d="M4.48877 20.1182C5.01449 20.6621 6.5239 20.8129 6.56461 20.276C6.6069 19.7212 5.00358 19.6803 4.48877 20.1182Z" fill="#FFFEFC"/>
<path d="M6.73815 20.1107C7.27637 20.0959 7.19906 18.5811 6.6813 18.0297C6.21902 18.5226 6.18195 20.126 6.73815 20.1107Z" fill="#FFFEFC"/>
<path d="M3.76196 18.7944C4.17945 19.3927 5.59404 19.7669 5.71501 19.2617C5.83985 18.7398 4.31907 18.4558 3.76196 18.7944Z" fill="#FFFEFC"/>
<path d="M5.90539 19.1309C6.42019 19.1991 6.578 17.7445 6.16916 17.1401C5.65344 17.539 5.3733 19.0604 5.90539 19.1309Z" fill="#FFFEFC"/>
<path d="M3.32239 17.7102C3.66575 18.2925 4.94595 18.7387 5.09352 18.2805C5.2461 17.8073 3.86107 17.4371 3.32239 17.7102Z" fill="#FFFEFC"/>
<path d="M5.27883 18.1734C5.74952 18.273 5.99874 16.9402 5.6638 16.3529C5.15899 16.6847 4.79221 18.0704 5.27883 18.1734Z" fill="#FFFEFC"/>
<path d="M2.97119 16.551C3.24656 17.139 4.43035 17.6815 4.61271 17.2568C4.80167 16.8181 3.51124 16.3388 2.97119 16.551Z" fill="#FFFEFC"/>
<path d="M4.7997 17.1711C5.24083 17.3089 5.59965 16.0573 5.3327 15.4654C4.82039 15.7369 4.34401 17.0285 4.7997 17.1711Z" fill="#FFFEFC"/>
<path d="M2.78381 15.2908C2.96186 15.8872 4.00785 16.5687 4.24092 16.1919C4.48173 15.8026 3.32568 15.1657 2.78381 15.2908Z" fill="#FFFEFC"/>
<path d="M4.43015 16.1369C4.829 16.3299 5.34608 15.1937 5.17645 14.5947C4.65209 14.7798 4.01812 15.9374 4.43015 16.1369Z" fill="#FFFEFC"/>
<path d="M2.68823 14.1802C2.80898 14.7634 3.74991 15.4995 4.00322 15.1593C4.26472 14.808 3.21509 14.1056 2.68823 14.1802Z" fill="#FFFEFC"/>
<path d="M4.18804 15.1227C4.55231 15.3397 5.13897 14.2989 5.02664 13.7138C4.51138 13.8471 3.81148 14.8985 4.18804 15.1227Z" fill="#FFFEFC"/>
<path d="M2.73303 13.0328C2.77851 13.5999 3.58301 14.4087 3.86338 14.1163C4.15285 13.8143 3.24125 13.0246 2.73303 13.0328Z" fill="#FFFEFC"/>
<path d="M4.04305 14.1033C4.36276 14.3519 5.04174 13.435 5.00445 12.8675C4.50033 12.9327 3.71288 13.8464 4.04305 14.1033Z" fill="#FFFEFC"/>
<path d="M2.96905 11.9934C2.93607 12.5078 3.55252 13.3373 3.84153 13.1115C4.14032 12.8784 3.42564 12.0518 2.96905 11.9934Z" fill="#FFFEFC"/>
<path d="M4.00436 13.1231C4.25858 13.3875 4.98645 12.6537 5.0267 12.1398C4.56647 12.1333 3.74173 12.85 4.00436 13.1231Z" fill="#FFFEFC"/>
<path d="M3.16173 11.1204C3.09215 11.6041 3.61287 12.4341 3.90302 12.2424C4.20271 12.0443 3.58899 11.2098 3.16173 11.1204Z" fill="#FFFEFC"/>
<path d="M4.05603 12.2654C4.2766 12.5341 5.01925 11.8949 5.09565 11.4124C4.66088 11.3717 3.82796 11.9877 4.05603 12.2654Z" fill="#FFFEFC"/>
<path d="M3.37784 10.396C3.29121 10.8496 3.7469 11.6557 4.02909 11.4872C4.32083 11.3133 3.77714 10.499 3.37784 10.396Z" fill="#FFFEFC"/>
<path d="M4.17259 11.5159C4.36928 11.7792 5.09806 11.2078 5.19107 10.7555C4.78245 10.6982 3.96931 11.2437 4.17259 11.5159Z" fill="#FFFEFC"/>
<path d="M3.66367 9.6413C3.56089 10.064 3.95177 10.844 4.22509 10.6987C4.50773 10.5486 4.03476 9.75681 3.66367 9.6413Z" fill="#FFFEFC"/>
<path d="M4.35874 10.7321C4.53133 10.989 5.24374 10.4858 5.35266 10.0647C4.97087 9.99148 4.18024 10.4665 4.35874 10.7321Z" fill="#FFFEFC"/>
<path d="M4.00186 8.93729C3.89453 9.33113 4.24084 10.0729 4.5012 9.94371C4.77021 9.81023 4.34704 9.05531 4.00186 8.93729Z" fill="#FFFEFC"/>
<path d="M4.62588 9.9785C4.78119 10.2241 5.46245 9.77044 5.57546 9.3782C5.21937 9.29975 4.46534 9.72474 4.62588 9.9785Z" fill="#FFFEFC"/>
<path d="M4.33701 8.30764C4.22741 8.67283 4.53325 9.37409 4.77928 9.25972C5.03373 9.14148 4.65649 8.42611 4.33701 8.30764Z" fill="#FFFEFC"/>
<path d="M4.89484 9.2952C5.034 9.52827 5.68137 9.12079 5.7962 8.7572C5.46535 8.67534 4.75113 9.05439 4.89484 9.2952Z" fill="#FFFEFC"/>
<path d="M4.77886 7.66117C4.6588 7.99498 4.90802 8.66099 5.14223 8.56708C5.3844 8.46976 5.06969 7.78692 4.77886 7.66117Z" fill="#FFFEFC"/>
<path d="M5.24777 8.60574C5.36533 8.82904 5.98656 8.48295 6.11139 8.15096C5.80828 8.05841 5.12611 8.37494 5.24777 8.60574Z" fill="#FFFEFC"/>
<path d="M5.24388 7.12887C5.09676 7.42175 5.25139 8.06094 5.47673 8.00068C5.70958 7.93837 5.49674 7.27667 5.24388 7.12887Z" fill="#FFFEFC"/>
<path d="M5.56901 8.04775C5.65224 8.26582 6.26073 8.01705 6.41218 7.72622C6.14431 7.60797 5.48329 7.82263 5.56901 8.04775Z" fill="#FFFEFC"/>
<path d="M5.59715 6.65658C5.46685 6.94513 5.64149 7.55522 5.8566 7.48814C6.07898 7.41879 5.84705 6.78892 5.59715 6.65658Z" fill="#FFFEFC"/>
<path d="M5.9478 7.52999C6.03671 7.73691 6.61382 7.47268 6.74821 7.18617C6.48512 7.08271 5.85594 7.31601 5.9478 7.52999Z" fill="#FFFEFC"/>
<path d="M6.05408 6.1711C5.90446 6.43714 6.02043 7.03813 6.23258 6.99175C6.452 6.94399 6.28283 6.31935 6.05408 6.1711Z" fill="#FFFEFC"/>
<path d="M6.31648 7.03972C6.38424 7.24619 6.96113 7.04131 7.1144 6.77754C6.87063 6.65566 6.24644 6.82643 6.31648 7.03972Z" fill="#FFFEFC"/>
<path d="M6.59503 5.70654C6.42244 5.94438 6.46701 6.53196 6.67529 6.51127C6.8904 6.48989 6.7974 5.87389 6.59503 5.70654Z" fill="#FFFEFC"/>
<path d="M6.75011 6.56652C6.79218 6.7714 7.36656 6.63928 7.54233 6.40393C7.32268 6.26045 6.70668 6.35482 6.75011 6.56652Z" fill="#FFFEFC"/>
<path d="M7.00207 5.36365C6.82608 5.58444 6.8429 6.15087 7.04368 6.14018C7.25106 6.12904 7.18898 5.53328 7.00207 5.36365Z" fill="#FFFEFC"/>
<path d="M7.11322 6.19635C7.1446 6.3951 7.70193 6.29322 7.88134 6.07493C7.67646 5.92757 7.0807 5.99102 7.11322 6.19635Z" fill="#FFFEFC"/>
<path d="M7.39796 5.07327C7.22288 5.2802 7.2231 5.82412 7.41615 5.81957C7.61557 5.81456 7.5726 5.24109 7.39796 5.07327Z" fill="#FFFEFC"/>
<path d="M7.48115 5.87527C7.50571 6.06673 8.04326 5.98487 8.22153 5.78045C8.02916 5.6331 7.45591 5.67744 7.48115 5.87527Z" fill="#FFFEFC"/>
<path d="M7.80609 4.78813C7.63578 4.98437 7.62987 5.50554 7.81496 5.50326C8.00597 5.50076 7.97141 4.95094 7.80609 4.78813Z" fill="#FFFEFC"/>
<path d="M7.87687 5.55761C7.89824 5.74134 8.41419 5.66903 8.58723 5.47507C8.40464 5.33181 7.85481 5.36774 7.87687 5.55761Z" fill="#FFFEFC"/>
<path d="M8.36344 4.49821C8.17266 4.65761 8.08739 5.14854 8.26225 5.17469C8.44326 5.20175 8.49488 4.67716 8.36344 4.49821Z" fill="#FFFEFC"/>
<path d="M8.31247 5.23541C8.30451 5.41209 8.80272 5.42278 8.99577 5.26633C8.84524 5.10306 8.32066 5.05281 8.31247 5.23541Z" fill="#FFFEFC"/>
<path d="M8.87074 4.27081C8.66677 4.39178 8.51147 4.84155 8.67223 4.89271C8.83845 4.94569 8.96692 4.45954 8.87074 4.27081Z" fill="#FFFEFC"/>
<path d="M8.70995 4.95753C8.67538 5.12284 9.14335 5.20902 9.34913 5.09078C9.23226 4.9141 8.74565 4.78676 8.70995 4.95753Z" fill="#FFFEFC"/>
<path d="M9.27547 4.12619C9.06969 4.21942 8.87573 4.62872 9.02262 4.69398C9.17428 4.76174 9.34687 4.31492 9.27547 4.12619Z" fill="#FFFEFC"/>
<path d="M9.05147 4.75947C9.00144 4.91228 9.4353 5.0428 9.64245 4.95253C9.55036 4.77312 9.10309 4.60144 9.05147 4.75947Z" fill="#FFFEFC"/>
<path d="M9.73643 3.99429C9.52791 4.04432 9.2737 4.39154 9.39899 4.47886C9.52837 4.5689 9.76917 4.18303 9.73643 3.99429Z" fill="#FFFEFC"/>
<path d="M9.41427 4.54503C9.34037 4.67874 9.72171 4.87793 9.93091 4.83086C9.87724 4.6469 9.49068 4.40701 9.41427 4.54503Z" fill="#FFFEFC"/>
<path d="M10.1036 3.88129C9.90349 3.91677 9.64313 4.23034 9.7566 4.31993C9.87393 4.41293 10.1238 4.06184 10.1036 3.88129Z" fill="#FFFEFC"/>
<path d="M9.76752 4.38359C9.68998 4.50569 10.039 4.71603 10.2396 4.68351C10.1991 4.50638 9.84756 4.25739 9.76752 4.38359Z" fill="#FFFEFC"/>
<path d="M15.5639 23.2155L15.5607 23.1928C20.402 22.507 24.0527 18.2966 24.0527 13.3991C24.0527 9.48212 21.737 5.92848 18.1529 4.34586L18.1622 4.32494C19.8979 5.09146 21.3718 6.33437 22.4251 7.91927C23.505 9.54465 24.0757 11.4395 24.0757 13.3991C24.0757 14.6216 23.8558 15.8149 23.4224 16.9464C23.0036 18.0392 22.3985 19.042 21.6242 19.9268C20.058 21.7156 17.9057 22.8837 15.5639 23.2155Z" fill="white"/>
<path d="M17.442 20.5819C17.784 21.4039 17.2419 23.105 16.6427 22.8983C16.0238 22.6846 16.7287 20.9334 17.442 20.5819ZM16.5829 23.2073C16.3799 23.8076 18.0842 24.3397 18.9041 23.9927C18.5483 23.2815 16.7928 22.587 16.5829 23.2073Z" fill="white"/>
<path d="M20.3109 23.1407C19.5887 23.5632 17.9358 23.2732 18.0525 22.6891C18.1732 22.0856 19.8932 22.5206 20.3109 23.1407Z" fill="white"/>
<path d="M17.9172 22.4615C17.3483 22.2853 17.8828 20.6944 18.5989 20.2617C18.9443 20.9246 18.505 22.6436 17.9172 22.4615Z" fill="white"/>
<path d="M21.4667 22.4371C20.7734 22.8558 19.1696 22.5975 19.2747 22.0306C19.3834 21.4448 21.054 21.8425 21.4667 22.4371Z" fill="white"/>
<path d="M19.1406 21.8121C18.5876 21.649 19.0835 20.1023 19.7707 19.6737C20.114 20.3106 19.7122 21.9803 19.1406 21.8121Z" fill="white"/>
<path d="M22.6175 21.3236C22.0028 21.8089 20.4329 21.7543 20.4655 21.1979C20.4991 20.6228 22.15 20.8029 22.6175 21.3236Z" fill="white"/>
<path d="M20.3105 21.0044C19.7603 20.9148 20.0497 19.3708 20.6573 18.8769C21.0632 19.4465 20.879 21.0969 20.3105 21.0044Z" fill="white"/>
<path d="M23.5113 20.1182C22.9856 20.6622 21.4762 20.8129 21.4355 20.276C21.3932 19.7212 22.9965 19.6803 23.5113 20.1182Z" fill="white"/>
<path d="M21.262 20.1107C20.7238 20.0959 20.8011 18.5811 21.3188 18.0297C21.7811 18.5226 21.8182 20.126 21.262 20.1107Z" fill="white"/>
<path d="M24.238 18.7944C23.8205 19.3926 22.4059 19.7669 22.285 19.2617C22.1601 18.7398 23.6809 18.4558 24.238 18.7944Z" fill="white"/>
<path d="M22.0946 19.1309C21.5798 19.1991 21.422 17.7445 21.8309 17.1401C22.3466 17.539 22.6267 19.0604 22.0946 19.1309Z" fill="white"/>
<path d="M24.6776 17.7102C24.3342 18.2925 23.054 18.7387 22.9064 18.2805C22.7539 17.8073 24.1387 17.4371 24.6776 17.7102Z" fill="white"/>
<path d="M22.7211 18.1734C22.2504 18.273 22.0012 16.9403 22.3361 16.3529C22.8409 16.6847 23.2077 18.0704 22.7211 18.1734Z" fill="white"/>
<path d="M25.0287 16.551C24.7534 17.139 23.5696 17.6815 23.3872 17.2568C23.1985 16.8181 24.4889 16.3388 25.0287 16.551Z" fill="white"/>
<path d="M23.2003 17.1711C22.7591 17.3089 22.4003 16.0573 22.6673 15.4654C23.1798 15.7369 23.6562 17.0285 23.2003 17.1711Z" fill="white"/>
<path d="M25.2162 15.2908C25.0382 15.8872 23.9922 16.5687 23.7591 16.1919C23.5183 15.8026 24.6744 15.1657 25.2162 15.2908Z" fill="white"/>
<path d="M23.57 16.1369C23.1711 16.3299 22.654 15.1937 22.8237 14.5947C23.348 14.7798 23.982 15.9375 23.57 16.1369Z" fill="white"/>
<path d="M25.3117 14.1802C25.191 14.7634 24.2501 15.4995 23.9968 15.1593C23.7351 14.808 24.7849 14.1056 25.3117 14.1802Z" fill="white"/>
<path d="M23.8119 15.1227C23.4476 15.3397 22.861 14.2989 22.9733 13.7138C23.4885 13.8471 24.1882 14.8985 23.8119 15.1227Z" fill="white"/>
<path d="M25.267 13.0328C25.2215 13.5999 24.417 14.4087 24.1367 14.1163C23.847 13.8143 24.7588 13.0246 25.267 13.0328Z" fill="white"/>
<path d="M23.957 14.1033C23.6373 14.3519 22.9583 13.435 22.9956 12.8675C23.4995 12.9327 24.2872 13.8464 23.957 14.1033Z" fill="white"/>
<path d="M25.0311 11.9934C25.064 12.5078 24.4476 13.3373 24.1586 13.1115C23.8595 12.8784 24.5745 12.0518 25.0311 11.9934Z" fill="white"/>
<path d="M23.9957 13.1231C23.7415 13.3875 23.0136 12.6537 22.9734 12.1398C23.4336 12.1333 24.2583 12.85 23.9957 13.1231Z" fill="white"/>
<path d="M24.8383 11.1205C24.9079 11.6041 24.3872 12.4341 24.0971 12.2424C23.7971 12.0443 24.4111 11.2098 24.8383 11.1205Z" fill="white"/>
<path d="M23.9441 12.2654C23.7235 12.5341 22.9808 11.895 22.9044 11.4124C23.3392 11.3717 24.1719 11.9877 23.9441 12.2654Z" fill="white"/>
<path d="M24.6222 10.396C24.7088 10.8496 24.2532 11.6557 23.971 11.4872C23.6792 11.3133 24.2227 10.499 24.6222 10.396Z" fill="white"/>
<path d="M23.8274 11.5159C23.6307 11.7792 22.902 11.2078 22.809 10.7555C23.2176 10.6982 24.0307 11.2437 23.8274 11.5159Z" fill="white"/>
<path d="M24.3362 9.6413C24.439 10.064 24.0481 10.844 23.7748 10.6987C23.4921 10.5486 23.9651 9.75682 24.3362 9.6413Z" fill="white"/>
<path d="M23.6411 10.7321C23.4685 10.989 22.7561 10.4858 22.6472 10.0647C23.0288 9.99149 23.8194 10.4665 23.6411 10.7321Z" fill="white"/>
<path d="M23.9979 8.93729C24.1053 9.33113 23.7589 10.0729 23.4986 9.94372C23.2298 9.81024 23.653 9.05531 23.9979 8.93729Z" fill="white"/>
<path d="M23.3741 9.97851C23.2188 10.2241 22.5376 9.77045 22.4246 9.3782C22.7806 9.29975 23.5346 9.72474 23.3741 9.97851Z" fill="white"/>
<path d="M23.6631 8.30765C23.7727 8.67284 23.4668 9.3741 23.2208 9.25973C22.9661 9.14148 23.3434 8.42612 23.6631 8.30765Z" fill="white"/>
<path d="M23.1052 9.2952C22.966 9.52827 22.3187 9.1208 22.2039 8.75721C22.5345 8.67535 23.2489 9.0544 23.1052 9.2952Z" fill="white"/>
<path d="M23.2211 7.66119C23.3412 7.99499 23.092 8.66101 22.8578 8.5671C22.6156 8.46978 22.9303 7.78693 23.2211 7.66119Z" fill="white"/>
<path d="M22.7523 8.60578C22.6348 8.82908 22.0135 8.48299 21.8887 8.151C22.1918 8.05845 22.874 8.37498 22.7523 8.60578Z" fill="white"/>
<path d="M22.5234 8.00068C22.7487 8.06094 22.9036 7.42197 22.7562 7.12887C22.5034 7.27667 22.2903 7.93838 22.5234 8.00068Z" fill="white"/>
<path d="M21.5879 7.72644C21.7393 8.01727 22.3478 8.26603 22.4311 8.04797C22.5168 7.82263 21.8558 7.60798 21.5879 7.72644Z" fill="white"/>
<path d="M22.4026 6.65659C22.5329 6.94514 22.3582 7.55523 22.1431 7.48815C21.9209 7.41879 22.1529 6.78893 22.4026 6.65659Z" fill="white"/>
<path d="M22.0521 7.52999C21.9632 7.73692 21.3861 7.47269 21.2517 7.18618C21.5148 7.08271 22.144 7.31602 22.0521 7.52999Z" fill="white"/>
<path d="M21.9459 6.17111C22.0955 6.43716 21.9796 7.03815 21.7674 6.99176C21.548 6.94401 21.7171 6.31937 21.9459 6.17111Z" fill="white"/>
<path d="M21.6833 7.03975C21.6155 7.24622 21.0386 7.04134 20.8854 6.77757C21.1294 6.65569 21.7533 6.82646 21.6833 7.03975Z" fill="white"/>
<path d="M21.4048 5.70656C21.5774 5.94441 21.5329 6.53198 21.3246 6.51129C21.1097 6.48992 21.2027 5.87392 21.4048 5.70656Z" fill="white"/>
<path d="M21.2498 6.56654C21.2077 6.77142 20.6333 6.6393 20.4575 6.40396C20.6774 6.26047 21.2932 6.35484 21.2498 6.56654Z" fill="white"/>
<path d="M20.9979 5.36366C21.1739 5.58445 21.1571 6.15088 20.9563 6.14019C20.7487 6.12905 20.811 5.53329 20.9979 5.36366Z" fill="white"/>
<path d="M20.8868 6.19636C20.8554 6.3951 20.2981 6.29323 20.1187 6.07493C20.3235 5.92758 20.9193 5.99102 20.8868 6.19636Z" fill="white"/>
<path d="M20.6022 5.07329C20.7773 5.28021 20.7771 5.82413 20.584 5.81958C20.3846 5.81458 20.4276 5.2411 20.6022 5.07329Z" fill="white"/>
<path d="M20.519 5.87529C20.4944 6.06675 19.9568 5.98489 19.7786 5.78047C19.9709 5.63312 20.5442 5.67746 20.519 5.87529Z" fill="white"/>
<path d="M20.1939 4.78815C20.3642 4.98438 20.3701 5.50555 20.185 5.50328C19.9938 5.50078 20.0284 4.95096 20.1939 4.78815Z" fill="white"/>
<path d="M20.1232 5.55762C20.1019 5.74136 19.5859 5.66905 19.4128 5.47508C19.5954 5.33182 20.1453 5.36775 20.1232 5.55762Z" fill="white"/>
<path d="M19.6364 4.49821C19.8272 4.65761 19.9125 5.14854 19.7376 5.17469C19.5568 5.20175 19.5052 4.67716 19.6364 4.49821Z" fill="white"/>
<path d="M19.6876 5.23541C19.6955 5.41209 19.1973 5.42278 19.0043 5.26633C19.1548 5.10306 19.6794 5.05281 19.6876 5.23541Z" fill="white"/>
<path d="M19.1292 4.27083C19.3332 4.3918 19.4885 4.84157 19.3277 4.89273C19.1615 4.94572 19.033 4.45956 19.1292 4.27083Z" fill="white"/>
<path d="M19.2898 4.95755C19.3244 5.12286 18.8564 5.20904 18.6506 5.0908C18.7677 4.91412 19.2544 4.78678 19.2898 4.95755Z" fill="white"/>
<path d="M18.7245 4.12619C18.9303 4.21942 19.1242 4.62872 18.9774 4.69398C18.8257 4.76174 18.6531 4.31492 18.7245 4.12619Z" fill="white"/>
<path d="M18.9483 4.75947C18.9983 4.91228 18.5644 5.0428 18.3573 4.95253C18.4496 4.77312 18.8967 4.60144 18.9483 4.75947Z" fill="white"/>
<path d="M18.2636 3.99432C18.4721 4.04434 18.7263 4.39156 18.601 4.47888C18.4716 4.56893 18.2306 4.18305 18.2636 3.99432Z" fill="white"/>
<path d="M18.5856 4.54506C18.6595 4.67876 18.2782 4.87796 18.069 4.83089C18.1229 4.64693 18.5094 4.40703 18.5856 4.54506Z" fill="white"/>
<path d="M18.2434 4.32016C18.3569 4.23034 18.0965 3.91678 17.8964 3.88153C17.8762 4.06185 18.1261 4.41294 18.2434 4.32016Z" fill="white"/>
<path d="M17.7605 4.68353C17.961 4.71605 18.3101 4.50572 18.2325 4.38361C18.1525 4.25741 17.8007 4.5064 17.7605 4.68353Z" fill="white"/>
<path d="M13.9999 22.376L14.2161 23.0415H14.916L14.3498 23.4529L14.5661 24.1185L13.9999 23.7071L13.4337 24.1185L13.6499 23.4529L13.0837 23.0415H13.7836L13.9999 22.376Z" fill="white"/>
<path d="M11.6633 11.1723H11.2629C10.8679 11.1723 10.5477 10.8522 10.5477 10.4572V7.61618C10.5477 7.2212 10.8679 6.90104 11.2629 6.90104H11.6633C12.0583 6.90104 12.3782 7.2212 12.3782 7.61618V10.4572C12.3782 10.8522 12.058 11.1723 11.6633 11.1723Z" fill="white"/>
<path d="M15.1239 6.59611H17.2595C17.2595 6.59611 17.5647 6.59611 17.5647 7.20619C17.5647 7.81628 17.2595 7.81628 17.2595 7.81628C17.2595 7.81628 17.5647 7.81628 17.5647 8.42636C17.5647 9.03645 17.2595 9.03645 17.2595 9.03645C17.2595 9.03645 17.5647 9.64653 16.9544 9.95169C16.9544 9.95169 17.2595 10.8669 16.3443 10.8669H14.2457C13.8314 10.8669 13.4339 10.7023 13.1408 10.4094C12.8477 10.1163 12.6831 9.71907 12.6831 9.30454V8.06845C12.6831 7.72782 12.8193 7.40379 13.0537 7.15685C13.5342 6.65068 14.2389 5.71111 13.5983 5.07032C13.5983 5.07032 13.6834 3.70349 14.8187 4.46024C15.734 5.07055 15.1239 6.59611 15.1239 6.59611Z" fill="white"/>
<defs>
<linearGradient id="paint0_linear" x1="8.09582" y1="-2.59199" x2="21.9164" y2="36.2469" gradientUnits="userSpaceOnUse">
<stop stop-color="#2A8FF9"/>
<stop offset="1" stop-color="#1960EF"/>
</linearGradient>
<linearGradient id="paint1_linear" x1="14.0001" y1="0.64746" x2="14.0001" y2="27.3525" gradientUnits="userSpaceOnUse">
<stop stop-color="#E0C575"/>
<stop offset="0.1703" stop-color="#B78226"/>
<stop offset="0.5" stop-color="#FCF3AC"/>
<stop offset="0.6027" stop-color="#B37F33"/>
<stop offset="0.8838" stop-color="#F2E7B3"/>
<stop offset="1" stop-color="#C29242"/>
</linearGradient>
</defs>
</svg>
